<?xml version="1.0" encoding="utf-8"?>
<!-- Generator: Adobe Illustrator 16.2.1, SVG Export Plug-In . SVG Version: 6.00 Build 0)  -->
<!DOCTYPE svg PUBLIC "-//W3C//DTD SVG 1.1//EN" "http://www.w3.org/Graphics/SVG/1.1/DTD/svg11.dtd">
<svg version="1.1" id="Layer_1" xmlns="http://www.w3.org/2000/svg" xmlns:xlink="http://www.w3.org/1999/xlink" x="0px" y="0px"
	 width="300px" height="300px" viewBox="0 0 300 300" enable-background="new 0 0 300 300" xml:space="preserve">
<g>
	<path fill="#DCDBDB" d="M295,150.001c0,80.078-64.921,144.998-144.998,144.998c-80.082,0-145.001-64.92-145.001-144.998
		c0-80.082,64.919-145,145.001-145C230.079,5.001,295,69.919,295,150.001z"/>
	<g>
		<path fill="#F3F3F3" d="M232.853,269.119c-21.841-34.568-46.457-50.781-46.457-50.781l-1.461-1.489
			c-4.594-3.695-3.647-7.938-3.647-7.938c2.033-7.958,7.729-8.828,7.729-8.828c9.509-0.402,11.406-3.835,11.406-3.835
			c3.364-6.044,0.135-13.174,0.135-13.174c0.599-2.368,4.101-5.091,4.101-5.091c0.587-3.825-0.517-5.736-0.517-5.736
			c2.341-2.082,3.436-4.039,3.436-4.039c-0.592-5.026,0.721-8.77,0.721-8.77c1.163-1.469,6.437-1.469,6.437-1.469
			c5.84-2.946,2.029-9.139,2.029-9.139c-2.925-5.001-5.546-12.062-5.546-12.062c-2.726-6.947,5.546-17.972,5.546-17.972
			s37.109,12.378,48.776,0.897c0,0,9.357-11.197-13.712-27.39c0,0-15.492-11.789-46.446-13.543c0,0-2.911-19.435-4.082-25.908
			c0,0-3.797-13.837-23.375-18.554c0,0-19.859-7.067-44.688-2.346c0,0-18.102,1.73-25.995,14.113c0,0-3.784,7.656-4.678,20.023
			c0,0-39.419,7.366-59.866,30.345c0,0-31.555,33.261,42.643,32.688l4.23-0.314c0,0-9.789,10.756-9.188,31.37
			c0,0,0.357,14.878-14.544,29.894c0,0-11.79,9.187-8.942,31.339l0.144,1.755c0,0-10.25,9.4-18.798,19.229l-0.022-0.021
			C17.459,217.289,5,185.093,5,149.986C5,69.917,69.921,5.001,150.007,5.001C230.092,5.001,295,69.917,295,149.986
			c0,49.336-24.639,92.919-62.28,119.133H232.853z"/>
	</g>
</g>
</svg>
