<?xml version="1.0" encoding="utf-8"?>
<!-- Generator: Adobe Illustrator 16.0.0, SVG Export Plug-In . SVG Version: 6.00 Build 0)  -->
<!DOCTYPE svg PUBLIC "-//W3C//DTD SVG 1.1//EN" "http://www.w3.org/Graphics/SVG/1.1/DTD/svg11.dtd">
<svg version="1.1" id="Layer_1" xmlns="http://www.w3.org/2000/svg" xmlns:xlink="http://www.w3.org/1999/xlink" x="0px" y="0px"
     width="96.448px" height="87.838px" viewBox="-4.705 -0.001 96.448 87.838" enable-background="new -4.705 -0.001 96.448 87.838"
     xml:space="preserve">
<path fill="#FFFFFF" d="M71.072,87.837C63.81,76.345,55.623,70.949,55.623,70.949l-0.486-0.487
    c-1.528-1.229-1.212-2.646-1.212-2.646c0.677-2.646,2.57-2.938,2.57-2.938c3.16-0.125,3.791-1.272,3.791-1.272
    c1.12-2.009,0.045-4.379,0.045-4.379c0.199-0.786,1.363-1.693,1.363-1.693c0.194-1.271-0.171-1.905-0.171-1.905
    c0.777-0.688,1.145-1.348,1.145-1.348c-0.196-1.669,0.239-2.912,0.239-2.912c0.389-0.49,2.141-0.49,2.141-0.49
    c1.94-0.979,0.676-3.039,0.676-3.039c-0.974-1.662-1.844-4.011-1.844-4.011c-0.909-2.315,1.844-5.978,1.844-5.978
    s12.339,4.115,16.222,0.296c0,0,3.11-3.722-4.562-9.106c0,0-5.15-3.918-15.444-4.506c0,0-0.969-6.463-1.358-8.615
    c0,0-1.262-4.604-7.773-6.17c0,0-6.605-2.349-14.861-0.781c0,0-6.021,0.58-8.646,4.695c0,0-1.26,2.547-1.553,6.658
    c0,0-13.113,2.453-19.914,10.091c0,0-10.491,11.063,14.181,10.87l1.411-0.104c0,0-3.257,3.578-3.06,10.431
    c0,0,0.119,4.95-4.837,9.944c0,0-3.921,3.058-2.973,10.422l0.048,0.582c0,0-3.407,3.123-6.251,6.396l-0.009-0.012
    C-0.557,70.603-4.705,59.897-4.705,48.22c0-26.629,21.594-48.221,48.226-48.221c26.634,0,48.222,21.592,48.222,48.221
    c0,16.408-8.195,30.898-20.713,39.613h0.043L71.072,87.837L71.072,87.837z"/>
</svg>
