<?xml version="1.0" encoding="utf-8"?>
<!-- Generator: Adobe Illustrator 16.0.0, SVG Export Plug-In . SVG Version: 6.00 Build 0)  -->
<!DOCTYPE svg PUBLIC "-//W3C//DTD SVG 1.1//EN" "http://www.w3.org/Graphics/SVG/1.1/DTD/svg11.dtd">
<svg version="1.1" xmlns="http://www.w3.org/2000/svg" xmlns:xlink="http://www.w3.org/1999/xlink" x="0px" y="0px" width="128px"
	 height="128px" viewBox="0 0 128 128" enable-background="new 0 0 128 128" xml:space="preserve">
<g id="square_-_gray">
	<rect fill="#C2C2C1" width="128" height="128"/>
</g>
<g id="logo_-_white">
	<path fill="#FFFFFF" d="M88.73,102.713c-6.436-10.187-13.693-14.966-13.693-14.966l-0.431-0.439
		c-1.351-1.088-1.075-2.34-1.075-2.34c0.604-2.344,2.282-2.602,2.282-2.602c2.799-0.122,3.358-1.13,3.358-1.13
		c0.994-1.782,0.041-3.887,0.041-3.887c0.177-0.696,1.209-1.497,1.209-1.497c0.173-1.128-0.153-1.69-0.153-1.69
		c0.69-0.615,1.011-1.193,1.011-1.193c-0.171-1.479,0.216-2.582,0.216-2.582c0.344-0.436,1.896-0.436,1.896-0.436
		c1.724-0.869,0.6-2.69,0.6-2.69c-0.863-1.475-1.635-3.558-1.635-3.558c-0.804-2.046,1.635-5.297,1.635-5.297
		s10.938,3.648,14.379,0.265c0,0,2.755-3.3-4.042-8.074c0,0-4.567-3.475-13.69-3.992c0,0-0.859-5.729-1.203-7.634
		c0,0-1.119-4.08-6.891-5.47c0,0-5.855-2.082-13.172-0.691c0,0-5.335,0.511-7.663,4.161c0,0-1.116,2.255-1.379,5.902
		c0,0-11.617,2.169-17.644,8.942c0,0-9.302,9.801,12.567,9.634l1.247-0.092c0,0-2.883,3.171-2.706,9.246c0,0,0.104,4.382-4.288,8.81
		c0,0-3.475,2.709-2.636,9.238l0.042,0.516c0,0-3.022,2.771-5.541,5.668l-0.006-0.004c-6.12-7.397-9.792-16.887-9.792-27.233
		c0-23.599,19.134-42.734,42.739-42.734c23.606,0,42.737,19.136,42.737,42.734c0,14.543-7.26,27.387-18.357,35.114H88.73z"/>
</g>
</svg>
