<svg xmlns="http://www.w3.org/2000/svg" viewBox="0 0 115 132"><path d="M95.164 115.317v15.774h-8.819V99h6.874l12.89 16.317V99h8.82v32.091h-7.011zm-33 0v15.774h-8.819V99h6.874l12.89 16.317V99h8.82v32.091h-7.011zm-10.969 8.09v7.684H28.31V99h22.478v7.684H37.13v4.52h11.668v7.141H37.13v5.062zM1 131.09V99h13.84c1.567 0 3.014.324 4.341.972a11.279 11.279 0 0 1 3.415 2.531c.95 1.04 1.696 2.23 2.238 3.57.543 1.342.815 2.69.815 4.046 0 1.417-.257 2.795-.77 4.136a11.583 11.583 0 0 1-2.148 3.57 10.224 10.224 0 0 1-3.346 2.486c-1.312.618-2.752.927-4.32.927H9.82v9.853H1zm8.819-17.536h4.658c.543 0 1.047-.249 1.515-.746.467-.497.701-1.393.701-2.69 0-1.325-.271-2.229-.814-2.711-.542-.482-1.085-.723-1.628-.723H9.82v6.87z" opacity=".5"/><path d="M92.612 62l5.744 13.876L104.235 62h9.589l-11.081 21.469v10.622h-8.774V83.379L83.069 62z"/><path d="M68.276 94.091V62h8.819v24.407h14.563v7.684H68.276zm-26.173 0V62h8.82v24.407h14.563v7.684H42.103zm-12.517 0V62h8.819v32.091h-8.819zm-2.269-8.226c0 1.446-.302 2.69-.905 3.729a7.329 7.329 0 0 1-2.487 2.553c-1.056.664-2.284 1.153-3.686 1.47a20.186 20.186 0 0 1-4.455.474H0V62h18.634c1.115 0 2.125.242 3.03.723A7.566 7.566 0 0 1 23.97 64.6a8.612 8.612 0 0 1 1.47 2.622c.347.979.52 1.981.52 3.005 0 1.507-.384 2.946-1.153 4.317-.768 1.371-1.922 2.403-3.46 3.096 1.84.542 3.294 1.484 4.365 2.825 1.07 1.34 1.605 3.14 1.605 5.4zM8.82 69.503v4.926h6.016a2.91 2.91 0 0 0 1.65-.497c.498-.33.747-.994.747-1.988 0-.874-.211-1.5-.633-1.876a2.173 2.173 0 0 0-1.493-.565H8.819zm9.543 14.554c0-.784-.211-1.439-.633-1.966-.423-.527-.965-.792-1.628-.792H8.819v5.379h6.965c.724 0 1.334-.226 1.832-.678.497-.452.746-1.1.746-1.943z"/><path d="M66.66 53.664l-.367-.374c-1.158-.928-.918-1.996-.918-1.996.51-2.003 1.947-2.222 1.947-2.222 2.392-.1 2.869-.964 2.869-.964.847-1.521.036-3.315.036-3.315.15-.596 1.03-1.28 1.03-1.28.148-.962-.128-1.442-.128-1.442.59-.524.863-1.017.863-1.017-.148-1.264.182-2.205.182-2.205.293-.37 1.62-.37 1.62-.37 1.47-.741.512-2.3.512-2.3-.738-1.257-1.396-3.034-1.396-3.034-.686-1.747 1.396-4.519 1.396-4.519s9.34 3.113 12.278.224c0 0 2.354-2.817-3.452-6.889 0 0-3.9-2.966-11.691-3.406 0 0-.733-4.89-1.03-6.517 0 0-.953-3.481-5.882-4.668 0 0-4.999-1.777-11.248-.59 0 0-4.557.435-6.545 3.55 0 0-.95 1.926-1.174 5.037 0 0-9.926 1.853-15.07 7.632 0 0-7.944 8.368 10.733 8.224l1.066-.08s-2.465 2.706-2.313 7.893c0 0 .089 3.742-3.66 7.519 0 0-2.969 2.31-2.253 7.883l.038.44s-2.582 2.366-4.733 4.838A36.305 36.305 0 0 1 21 36.47C21 16.33 37.343 0 57.501 0 77.66 0 94 16.329 94 36.471c0 12.41-6.205 23.374-15.68 29.967-5.462-8.694-11.66-12.774-11.66-12.774z"/></svg>