<svg viewBox="0 0 491 100" xmlns="http://www.w3.org/2000/svg"><title>BP logo + short tagline PATHS</title><g fill="none" fill-rule="evenodd"><path d="M152.541 50.885c0-1.258-.339-2.31-1.016-3.158-.678-.846-1.549-1.269-2.613-1.269h-11.685v8.637h11.177c1.161 0 2.141-.363 2.94-1.089.798-.726 1.197-1.766 1.197-3.121zm-15.314-23.371v7.911h9.653c.968 0 1.85-.265 2.649-.799.798-.531 1.198-1.596 1.198-3.193 0-1.403-.339-2.407-1.016-3.012a3.484 3.484 0 0 0-2.396-.907h-10.088zm29.685 26.274c0 2.323-.484 4.319-1.451 5.988-.969 1.669-2.299 3.037-3.992 4.101-1.695 1.064-3.665 1.852-5.915 2.359-2.25.508-4.634.762-7.15.762h-25.331V15.465h29.904c1.79 0 3.411.388 4.863 1.161a12.154 12.154 0 0 1 3.701 3.012 13.787 13.787 0 0 1 2.359 4.21c.556 1.573.835 3.182.835 4.827 0 2.42-.617 4.73-1.851 6.931-1.234 2.203-3.084 3.86-5.552 4.972 2.95.871 5.285 2.384 7.004 4.537 1.717 2.153 2.576 5.044 2.576 8.673zM171.631 66.998h14.153V15.465h-14.153zM191.735 66.998V15.465h14.154v39.194h23.371v12.339h-37.525M232.961 66.998V15.465h14.153v39.194h23.371v12.339h-37.524M273.098 15.465l9.217 22.282 9.436-22.282h15.388l-17.783 34.476v17.057h-14.081V49.796l-17.492-34.331h15.315" fill="#268A8C"/><path d="M323.18 66.998h-14.154V15.465h22.21c2.516 0 4.838.52 6.968 1.56 2.129 1.041 3.956 2.396 5.48 4.065a18.964 18.964 0 0 1 3.592 5.734c.871 2.153 1.307 4.319 1.307 6.496 0 2.275-.411 4.489-1.233 6.641-.824 2.154-1.973 4.065-3.449 5.734-1.476 1.67-3.265 3.001-5.371 3.992-2.104.993-4.416 1.488-6.931 1.488h-8.419v15.823m0-39.194v11.032h7.475c.871 0 1.681-.399 2.432-1.197.75-.799 1.125-2.238 1.125-4.319 0-2.129-.436-3.58-1.307-4.355-.871-.773-1.741-1.161-2.612-1.161h-7.113M389.301 66.998h-36.727V15.465h36.073v12.339h-21.919v7.258h18.725V46.53h-18.725v8.129h22.573v12.339M438.872 66.998h-11.25l-20.468-25.331v25.331h-14.153V15.465h11.032l20.686 26.202V15.465h14.153v51.533M490.696 66.998h-11.25l-20.467-25.331v25.331h-14.154V15.465h11.032l20.686 26.202V15.465h14.153v51.533" fill="#92C4C5"/><path d="M84.814 98.342c-8.129-12.867-17.293-18.903-17.293-18.903l-.544-.554c-1.709-1.375-1.357-2.953-1.357-2.953.757-2.963 2.877-3.287 2.877-3.287 3.539-.151 4.246-1.428 4.246-1.428 1.252-2.25.05-4.905.05-4.905.223-.88 1.526-1.894 1.526-1.894.219-1.424-.192-2.135-.192-2.135.871-.775 1.279-1.504 1.279-1.504-.22-1.871.268-3.263.268-3.263.433-.547 2.396-.547 2.396-.547 2.174-1.098.755-3.403.755-3.403-1.089-1.861-2.064-4.49-2.064-4.49-1.015-2.586 2.064-6.689 2.064-6.689s13.814 4.607 18.156.334c0 0 3.484-4.168-5.103-10.196 0 0-5.767-4.388-17.289-5.04 0 0-1.084-7.234-1.52-9.645 0 0-1.413-5.15-8.701-6.905 0 0-7.392-2.631-16.634-.874 0 0-6.738.645-9.676 5.255 0 0-1.409 2.849-1.741 7.453 0 0-14.673 2.742-22.285 11.293 0 0-11.745 12.381 15.873 12.168l1.575-.117s-3.643 4.004-3.42 11.678c0 0 .133 5.537-5.414 11.127 0 0-4.388 3.42-3.329 11.666l.054.652s-3.815 3.5-6.997 7.159l-.009-.008A53.757 53.757 0 0 1 0 53.996C0 24.192 24.166.028 53.977.028c29.81 0 53.97 24.164 53.97 53.968 0 18.365-9.171 34.588-23.182 44.346h.049M123.207 93V75.392h11.557v1.538h-9.82v6.472h8.282v1.439h-8.283V93h-1.736zm19.14.248c-.943 0-1.803-.178-2.58-.533a6.339 6.339 0 0 1-2.02-1.451 6.583 6.583 0 0 1-1.328-2.133 7.003 7.003 0 0 1-.47-2.554c0-.91.16-1.77.483-2.58a6.758 6.758 0 0 1 1.339-2.132 6.504 6.504 0 0 1 2.021-1.463 5.95 5.95 0 0 1 2.555-.546c.925 0 1.781.182 2.566.546a6.462 6.462 0 0 1 2.034 1.463 6.758 6.758 0 0 1 1.34 2.133c.322.81.483 1.67.483 2.579 0 .893-.157 1.744-.471 2.554a6.583 6.583 0 0 1-1.327 2.133 6.3 6.3 0 0 1-2.034 1.45c-.785.356-1.649.534-2.591.534zm-4.688-6.646c0 .727.124 1.4.372 2.02.248.62.583 1.166 1.005 1.638.421.47.917.839 1.488 1.103a4.28 4.28 0 0 0 1.823.397c.644 0 1.252-.136 1.822-.41a4.84 4.84 0 0 0 1.5-1.115c.43-.471.77-1.021 1.018-1.65a5.489 5.489 0 0 0 .372-2.033c0-.71-.124-1.385-.372-2.021a5.283 5.283 0 0 0-1.017-1.662 4.84 4.84 0 0 0-1.5-1.116 4.171 4.171 0 0 0-1.823-.409c-.645 0-1.249.136-1.81.41a4.798 4.798 0 0 0-1.489 1.128 5.44 5.44 0 0 0-1.017 1.674 5.586 5.586 0 0 0-.372 2.046zm20.603-5.035c-1.14.033-2.133.347-2.976.943-.843.595-1.438 1.413-1.786 2.455V93h-1.686V80.08h1.587v3.1c.48-.993 1.124-1.77 1.935-2.332.81-.562 1.678-.843 2.604-.843.132 0 .24.008.322.025v1.537zm11.668 11.681a4.565 4.565 0 0 1-1.698-.31 4.287 4.287 0 0 1-1.364-.856 3.861 3.861 0 0 1-1.228-2.852c0-.562.132-1.083.397-1.562.264-.48.636-.893 1.116-1.24.48-.347 1.05-.616 1.711-.806a7.88 7.88 0 0 1 2.182-.285c.662 0 1.331.058 2.01.173a8.707 8.707 0 0 1 1.81.496v-1.165c0-1.141-.323-2.046-.968-2.716-.644-.67-1.537-1.004-2.678-1.004-.661 0-1.34.132-2.034.397a9.807 9.807 0 0 0-2.108 1.14l-.595-1.116c1.67-1.124 3.29-1.686 4.861-1.686 1.62 0 2.893.455 3.82 1.364.925.91 1.388 2.166 1.388 3.77v5.828c0 .463.207.694.62.694V93a4.02 4.02 0 0 1-.645.074c-.43 0-.764-.107-1.004-.322-.24-.215-.368-.513-.385-.893l-.05-1.017a5.86 5.86 0 0 1-2.244 1.786 6.905 6.905 0 0 1-2.914.62zm.397-1.29a5.83 5.83 0 0 0 2.418-.496c.736-.33 1.294-.768 1.674-1.314.149-.149.26-.31.335-.484.074-.173.112-.334.112-.483v-2.108a10.337 10.337 0 0 0-1.749-.496 9.787 9.787 0 0 0-1.847-.174c-1.19 0-2.158.248-2.902.744-.744.496-1.116 1.15-1.116 1.96 0 .396.079.768.236 1.115.157.348.372.65.644.906.273.256.6.458.98.607.38.149.785.223 1.215.223zm22.953 1.29a5.355 5.355 0 0 1-2.815-.769 5.667 5.667 0 0 1-1.997-1.984V93h-1.512V74.896h1.686v7.886c.579-.876 1.273-1.583 2.083-2.12.81-.537 1.753-.806 2.827-.806.91 0 1.724.19 2.443.57.72.38 1.331.89 1.835 1.526a7.155 7.155 0 0 1 1.166 2.157 7.61 7.61 0 0 1 .41 2.468c0 .91-.158 1.769-.472 2.579a6.783 6.783 0 0 1-1.29 2.12 6.12 6.12 0 0 1-1.946 1.439 5.588 5.588 0 0 1-2.418.533zm-.397-1.488c.71 0 1.36-.145 1.947-.434a4.76 4.76 0 0 0 1.512-1.166 5.616 5.616 0 0 0 .992-1.661c.24-.62.36-1.26.36-1.922a5.81 5.81 0 0 0-.335-1.96 5.45 5.45 0 0 0-.942-1.673 4.566 4.566 0 0 0-1.463-1.166 4.079 4.079 0 0 0-1.873-.434c-.512 0-.992.087-1.438.26a4.86 4.86 0 0 0-1.24.707c-.38.298-.72.64-1.017 1.03a6.483 6.483 0 0 0-.744 1.227v4.018c.066.446.244.863.533 1.252.29.389.637.723 1.042 1.004s.843.505 1.314.67a4.08 4.08 0 0 0 1.352.248zm15.171 1.488c-.942 0-1.806-.178-2.591-.533a6.351 6.351 0 0 1-2.046-1.463 6.794 6.794 0 0 1-1.352-2.146 6.977 6.977 0 0 1-.484-2.604c0-.909.162-1.765.484-2.566a6.644 6.644 0 0 1 1.34-2.108 6.356 6.356 0 0 1 2.045-1.439 6.236 6.236 0 0 1 2.58-.533c.942 0 1.806.178 2.591.533.785.356 1.46.84 2.021 1.451a6.81 6.81 0 0 1 1.786 4.638v.396a.998.998 0 0 1-.025.273h-11.06c.049.695.21 1.335.483 1.922a5.283 5.283 0 0 0 1.054 1.525c.43.43.922.765 1.475 1.005.554.24 1.145.36 1.774.36a4.58 4.58 0 0 0 1.24-.174 5.013 5.013 0 0 0 1.14-.471c.348-.199.662-.443.943-.732.28-.29.496-.608.645-.955l1.463.397c-.199.48-.48.913-.843 1.302a5.886 5.886 0 0 1-1.265 1.017c-.48.29-1.009.512-1.587.67a6.881 6.881 0 0 1-1.81.235zm4.762-7.39a5.218 5.218 0 0 0-.484-1.898 5.164 5.164 0 0 0-1.041-1.475 4.607 4.607 0 0 0-1.464-.967 4.552 4.552 0 0 0-1.773-.348 4.644 4.644 0 0 0-3.261 1.315c-.422.413-.76.91-1.017 1.488a5.633 5.633 0 0 0-.459 1.885h9.499zm10.534 6.522c-.1.05-.244.116-.434.198a7.693 7.693 0 0 1-1.5.471c-.315.067-.646.1-.993.1-.364 0-.71-.05-1.041-.149-.331-.1-.62-.252-.868-.459a2.258 2.258 0 0 1-.596-.781 2.522 2.522 0 0 1-.223-1.091v-9.25h-1.785v-1.34h1.785v-4.365h1.687v4.365h2.976v1.34h-2.976v8.779c.033.48.202.83.508 1.054.306.223.657.334 1.054.334.48 0 .901-.078 1.265-.235.364-.157.595-.269.694-.335l.447 1.364zm8.525 0c-.1.05-.244.116-.434.198a7.693 7.693 0 0 1-1.5.471c-.315.067-.646.1-.993.1-.364 0-.71-.05-1.041-.149-.331-.1-.62-.252-.868-.459a2.258 2.258 0 0 1-.596-.781 2.522 2.522 0 0 1-.223-1.091v-9.25h-1.785v-1.34h1.785v-4.365h1.687v4.365h2.976v1.34h-2.976v8.779c.033.48.202.83.508 1.054.306.223.657.334 1.054.334.48 0 .901-.078 1.265-.235.364-.157.595-.269.694-.335l.447 1.364zm7.582.868c-.942 0-1.806-.178-2.591-.533a6.351 6.351 0 0 1-2.046-1.463 6.794 6.794 0 0 1-1.352-2.146 6.977 6.977 0 0 1-.484-2.604c0-.909.162-1.765.484-2.566a6.644 6.644 0 0 1 1.34-2.108 6.356 6.356 0 0 1 2.045-1.439 6.236 6.236 0 0 1 2.58-.533c.942 0 1.806.178 2.591.533.785.356 1.46.84 2.021 1.451a6.81 6.81 0 0 1 1.786 4.638v.396a.998.998 0 0 1-.025.273h-11.06c.049.695.21 1.335.483 1.922a5.283 5.283 0 0 0 1.054 1.525c.43.43.922.765 1.475 1.005.554.24 1.145.36 1.774.36a4.58 4.58 0 0 0 1.24-.174 5.013 5.013 0 0 0 1.14-.471c.348-.199.662-.443.943-.732.28-.29.496-.608.645-.955l1.463.397c-.199.48-.48.913-.843 1.302a5.886 5.886 0 0 1-1.265 1.017c-.48.29-1.009.512-1.587.67a6.881 6.881 0 0 1-1.81.235zm4.762-7.39a5.218 5.218 0 0 0-.484-1.898 5.164 5.164 0 0 0-1.041-1.475 4.607 4.607 0 0 0-1.464-.967 4.552 4.552 0 0 0-1.773-.348 4.644 4.644 0 0 0-3.261 1.315c-.422.413-.76.91-1.017 1.488a5.633 5.633 0 0 0-.459 1.885h9.499zm10.88-4.29c-1.14.032-2.132.346-2.975.942-.843.595-1.439 1.413-1.786 2.455V93h-1.686V80.08h1.587v3.1c.48-.993 1.124-1.77 1.934-2.332.81-.562 1.679-.843 2.604-.843.133 0 .24.008.323.025v1.537zM263.868 93V75.392h7.29c.761 0 1.46.161 2.096.484a5.522 5.522 0 0 1 1.65 1.264c.463.521.826 1.112 1.09 1.774.265.66.398 1.33.398 2.008 0 .728-.124 1.426-.372 2.096a5.671 5.671 0 0 1-1.042 1.773c-.446.513-.98.926-1.6 1.24-.62.314-1.31.471-2.07.471h-5.704V93h-1.736zm1.736-8.035h5.63c.512 0 .979-.112 1.4-.335a3.41 3.41 0 0 0 1.08-.893c.297-.372.528-.802.694-1.29.165-.487.248-.996.248-1.525a4.23 4.23 0 0 0-.286-1.55 4.21 4.21 0 0 0-.768-1.277 3.51 3.51 0 0 0-1.141-.855 3.189 3.189 0 0 0-1.377-.31h-5.48v8.035zM290.024 93h-1.686v-7.217c0-1.471-.252-2.57-.756-3.298-.505-.728-1.245-1.091-2.22-1.091-.48 0-.955.095-1.426.285a5.368 5.368 0 0 0-2.406 1.947 4.933 4.933 0 0 0-.682 1.463V93h-1.686V74.896h1.686v8.11a5.858 5.858 0 0 1 2.133-2.307 5.51 5.51 0 0 1 2.951-.843c.744 0 1.373.136 1.885.41a3.49 3.49 0 0 1 1.265 1.14c.33.488.57 1.075.72 1.76.148.687.222 1.443.222 2.27V93zm3.813 0V80.08h1.687V93h-1.687zm0-15.624v-2.48h1.687v2.48h-1.687zm5.698-2.48h1.687v15.178c0 .48.132.855.396 1.128.265.273.637.41 1.116.41.182 0 .397-.026.645-.075.248-.05.48-.116.695-.199l.297 1.364c-.314.133-.698.24-1.153.323a6.721 6.721 0 0 1-1.178.124c-.777 0-1.389-.22-1.835-.657-.447-.439-.67-1.054-.67-1.848V74.896zm6.963 0h1.686v15.178c0 .48.132.855.397 1.128.265.273.637.41 1.116.41.182 0 .397-.026.645-.075.248-.05.48-.116.694-.199l.298 1.364c-.314.133-.699.24-1.153.323a6.721 6.721 0 0 1-1.178.124c-.777 0-1.39-.22-1.836-.657-.446-.439-.67-1.054-.67-1.848V74.896zm7.36 22.072a6.689 6.689 0 0 0 .743.05c.298 0 .533-.042.707-.124.174-.083.343-.265.508-.546.166-.281.352-.686.558-1.215.207-.53.5-1.24.88-2.133l-5.629-12.92h1.736l4.787 11.358 4.439-11.359h1.612l-6.696 16.666a3.03 3.03 0 0 1-.905 1.252c-.422.356-.997.533-1.724.533a5.804 5.804 0 0 1-1.017-.074v-1.488z" fill="#268A8C"/></g></svg>