<?xml version="1.0" encoding="iso-8859-1"?>
<!-- Generator: Adobe Illustrator 16.0.4, SVG Export Plug-In . SVG Version: 6.00 Build 0)  -->
<!DOCTYPE svg PUBLIC "-//W3C//DTD SVG 1.1//EN" "http://www.w3.org/Graphics/SVG/1.1/DTD/svg11.dtd">
<svg version="1.1" id="Layer_1" xmlns="http://www.w3.org/2000/svg" xmlns:xlink="http://www.w3.org/1999/xlink" x="0px" y="0px"
	 width="61.631px" height="60.902px" viewBox="0 0 61.631 60.902" style="enable-background:new 0 0 61.631 60.902;"
	 xml:space="preserve">
<path style="fill:#B2B3B3;" d="M30.815,0C13.796,0,0,13.634,0,30.452c0,16.817,13.796,30.45,30.815,30.45S61.63,47.27,61.63,30.452
	C61.63,13.634,47.834,0,30.815,0z M18.399,21.488c0-0.841,0.702-1.524,1.561-1.524h22.993c0.862,0,1.563,0.684,1.562,1.524v1.073
	c0,0.121-0.052,0.224-0.147,0.293l-11.593,9.015c-0.004,0-0.008,0.006-0.01,0.011c-0.795,0.663-1.821,0.663-2.615,0
	c-0.006-0.006-0.009-0.011-0.014-0.011l-11.592-9.015c-0.096-0.069-0.145-0.171-0.145-0.293V21.488z M18.625,24.476
	c0.14-0.065,0.298-0.045,0.418,0.057l5.62,4.733c0.083,0.066,0.129,0.162,0.135,0.269c0.005,0.105-0.029,0.208-0.112,0.278
	l-5.619,5.033c-0.112,0.112-0.275,0.152-0.426,0.091c-0.15-0.061-0.241-0.196-0.241-0.354V24.82h-0.001
	C18.399,24.668,18.485,24.537,18.625,24.476z M44.515,38.25c0,0.835-0.701,1.52-1.562,1.52H19.96c-0.859,0-1.561-0.684-1.561-1.52
	v-1.222c0-0.11,0.044-0.206,0.127-0.277l7.084-6.249c0.148-0.131,0.369-0.131,0.517-0.005l3,2.526c1.384,1.165,3.274,1.165,4.661,0
	l2.997-2.526c0.149-0.126,0.371-0.126,0.517,0.005l7.084,6.249c0.086,0.071,0.129,0.167,0.129,0.277V38.25z M44.517,34.583
	c0,0.157-0.095,0.293-0.242,0.354c-0.149,0.062-0.309,0.021-0.428-0.091l-5.619-5.033c-0.078-0.07-0.115-0.172-0.109-0.278
	c0.002-0.106,0.049-0.202,0.132-0.269l5.622-4.733c0.117-0.103,0.273-0.122,0.416-0.057c0.141,0.062,0.229,0.192,0.229,0.344V34.583
	z"/>
</svg>
