<?xml version="1.0" encoding="iso-8859-1"?>
<!-- Generator: Adobe Illustrator 16.0.4, SVG Export Plug-In . SVG Version: 6.00 Build 0)  -->
<!DOCTYPE svg PUBLIC "-//W3C//DTD SVG 1.1//EN" "http://www.w3.org/Graphics/SVG/1.1/DTD/svg11.dtd">
<svg version="1.1" id="Layer_1" xmlns="http://www.w3.org/2000/svg" xmlns:xlink="http://www.w3.org/1999/xlink" x="0px" y="0px"
	 width="61.631px" height="60.902px" viewBox="0 0 61.631 60.902" style="enable-background:new 0 0 61.631 60.902;"
	 xml:space="preserve">
<path style="fill:#1B85BD;" d="M30.815,0C13.797,0,0,13.634,0,30.452c0,16.817,13.797,30.45,30.815,30.45
	c17.019,0,30.815-13.633,30.815-30.45C61.63,13.634,47.834,0,30.815,0z M24.928,40.394h-5.503V23.127h5.503V40.394z M22.177,20.767
	c-1.763,0-3.188-1.395-3.188-3.113c0-1.716,1.425-3.11,3.188-3.11c1.759,0,3.188,1.395,3.188,3.11
	C25.365,19.372,23.936,20.767,22.177,20.767z M45.533,40.393h-5.495v-8.396c0-2.004-0.04-4.579-2.859-4.579
	c-2.863,0-3.299,2.182-3.299,4.434v8.542h-5.5V23.127h5.277v2.357h0.074c0.735-1.356,2.529-2.789,5.207-2.789
	c5.565,0,6.595,3.575,6.595,8.227V40.393z"/>
</svg>
