<?xml version="1.0" encoding="iso-8859-1"?>
<!-- Generator: Adobe Illustrator 16.0.4, SVG Export Plug-In . SVG Version: 6.00 Build 0)  -->
<!DOCTYPE svg PUBLIC "-//W3C//DTD SVG 1.1//EN" "http://www.w3.org/Graphics/SVG/1.1/DTD/svg11.dtd">
<svg version="1.1" id="Layer_1" xmlns="http://www.w3.org/2000/svg" xmlns:xlink="http://www.w3.org/1999/xlink" x="0px" y="0px"
	 width="61.631px" height="60.902px" viewBox="0 0 61.631 60.902" style="enable-background:new 0 0 61.631 60.902;"
	 xml:space="preserve">
<path style="fill:#F04F24;" d="M30.815,0C13.796,0,0,13.634,0,30.452c0,16.817,13.796,30.45,30.815,30.45S61.63,47.27,61.63,30.452
	C61.63,13.634,47.834,0,30.815,0z M31.176,21.748c-1.056,0-1.912,0.864-1.912,1.932l-0.009,11.643
	c-0.062,4.451-3.647,8.042-8.069,8.042c-4.462,0-8.079-3.653-8.079-8.16c0-0.06,0-5.062,0-5.062h6.183v4.995
	c0,1.067,0.855,1.932,1.912,1.932c1.057,0,1.913-0.864,1.913-1.932V23.35c0.156-4.368,3.699-7.864,8.062-7.864
	c4.379,0,7.932,3.521,8.062,7.912v2.581l-3.682,1.109l-2.469-1.162V23.68C33.089,22.613,32.233,21.748,31.176,21.748z
	 M49.245,35.202c0,4.507-3.617,8.159-8.078,8.159c-4.438,0-8.04-3.613-8.079-8.087v-5.086l2.47,1.162l3.68-1.108v5.128
	c0,1.066,0.857,1.932,1.914,1.932c1.056,0,1.912-0.865,1.912-1.932v-5.229V30.14h6.182C49.245,30.14,49.245,35.144,49.245,35.202z"
	/>
</svg>
