<?xml version="1.0" encoding="iso-8859-1"?>
<!-- Generator: Adobe Illustrator 16.0.4, SVG Export Plug-In . SVG Version: 6.00 Build 0)  -->
<!DOCTYPE svg PUBLIC "-//W3C//DTD SVG 1.1//EN" "http://www.w3.org/Graphics/SVG/1.1/DTD/svg11.dtd">
<svg version="1.1" id="Layer_1" xmlns="http://www.w3.org/2000/svg" xmlns:xlink="http://www.w3.org/1999/xlink" x="0px" y="0px"
	 width="61.631px" height="60.902px" viewBox="0 0 61.631 60.902" style="enable-background:new 0 0 61.631 60.902;"
	 xml:space="preserve">
<g>
	<path style="fill:#DF4A31;" d="M28.283,34.98c-0.153,0-0.307,0.006-0.462,0.017c-1.314,0.095-2.522,0.578-3.402,1.359
		c-0.868,0.772-1.311,1.743-1.247,2.732c0.131,2.059,2.387,3.27,5.126,3.073c2.696-0.193,4.493-1.714,4.362-3.776
		C32.535,36.443,30.818,34.98,28.283,34.98z"/>
	<path style="fill:#DF4A31;" d="M30.867,23.762c-0.715-2.465-1.867-3.195-3.659-3.193c-0.195,0-0.388,0.026-0.575,0.078
		c-0.776,0.214-1.393,0.853-1.736,1.795c-0.349,0.96-0.374,1.957-0.069,3.1c0.544,2.031,2.017,3.506,3.501,3.506
		c0.195,0,0.388-0.026,0.574-0.078C30.523,28.52,31.54,26.088,30.867,23.762z"/>
	<path style="fill:#DF4A31;" d="M30.815,0C13.796,0,0,13.634,0,30.452c0,16.817,13.796,30.45,30.815,30.45S61.63,47.27,61.63,30.452
		C61.63,13.634,47.834,0,30.815,0z M31.901,43.598c-1.782,0.851-3.7,0.942-4.443,0.942c-0.14,0-0.223-0.003-0.236-0.003
		c0,0-0.054,0.001-0.144,0.001c-1.156,0-6.922-0.262-6.922-5.417c0-5.067,6.278-5.462,8.202-5.462l0.05,0.001
		c-1.111-1.456-0.88-2.928-0.88-2.928c-0.099,0.007-0.24,0.014-0.416,0.014c-0.725,0-2.121-0.114-3.323-0.874
		c-1.468-0.93-2.213-2.511-2.213-4.699c0-6.182,6.874-6.432,6.943-6.434h6.866v0.146c0,0.755-1.378,0.899-2.319,1.025
		c-0.317,0.043-0.959,0.109-1.14,0.2c1.738,0.91,2.021,2.345,2.021,4.48c0,2.431-0.969,3.716-1.998,4.619
		c-0.635,0.558-1.137,0.999-1.137,1.586c0,0.576,0.688,1.168,1.484,1.854c1.304,1.126,3.09,2.666,3.09,5.253
		C35.385,40.58,34.212,42.496,31.901,43.598z M46.914,31.613h-4.479v4.398h-2.836v-4.398h-4.479v-2.785h4.479V24.43h2.836v4.397
		h4.479V31.613z"/>
</g>
</svg>
