<?xml version="1.0" encoding="iso-8859-1"?>
<!-- Generator: Adobe Illustrator 16.0.4, SVG Export Plug-In . SVG Version: 6.00 Build 0)  -->
<!DOCTYPE svg PUBLIC "-//W3C//DTD SVG 1.1//EN" "http://www.w3.org/Graphics/SVG/1.1/DTD/svg11.dtd">
<svg version="1.1" id="Layer_1" xmlns="http://www.w3.org/2000/svg" xmlns:xlink="http://www.w3.org/1999/xlink" x="0px" y="0px"
	 width="61.631px" height="60.902px" viewBox="0 0 61.631 60.902" style="enable-background:new 0 0 61.631 60.902;"
	 xml:space="preserve">
<path style="fill:#2FA9E0;" d="M30.815,0C13.796,0,0,13.634,0,30.452c0,16.817,13.796,30.45,30.815,30.45S61.63,47.27,61.63,30.452
	C61.63,13.634,47.834,0,30.815,0z M43.622,26.359c0.011,0.233,0.016,0.468,0.016,0.702c0,7.171-5.521,15.442-15.621,15.442
	c-3.101,0-5.987-0.898-8.416-2.439c0.43,0.052,0.867,0.076,1.31,0.076c2.572,0,4.939-0.867,6.818-2.323
	c-2.402-0.043-4.43-1.612-5.129-3.769c0.336,0.063,0.679,0.098,1.033,0.098c0.501,0,0.986-0.066,1.446-0.19
	c-2.511-0.499-4.404-2.692-4.404-5.322c0-0.023,0-0.046,0-0.068c0.74,0.407,1.587,0.65,2.487,0.679
	c-1.474-0.975-2.443-2.635-2.443-4.518c0-0.995,0.271-1.927,0.744-2.729c2.707,3.284,6.754,5.444,11.317,5.671
	c-0.094-0.397-0.143-0.812-0.143-1.236c0-2.997,2.459-5.427,5.49-5.427c1.579,0,3.007,0.659,4.008,1.714
	c1.252-0.243,2.426-0.695,3.487-1.317c-0.411,1.269-1.281,2.331-2.415,3.004c1.109-0.133,2.168-0.424,3.152-0.855
	C45.625,24.639,44.694,25.595,43.622,26.359z"/>
</svg>
