<?xml version="1.0" encoding="iso-8859-1"?>
<!-- Generator: Adobe Illustrator 16.0.4, SVG Export Plug-In . SVG Version: 6.00 Build 0)  -->
<!DOCTYPE svg PUBLIC "-//W3C//DTD SVG 1.1//EN" "http://www.w3.org/Graphics/SVG/1.1/DTD/svg11.dtd">
<svg version="1.1" id="Layer_1" xmlns="http://www.w3.org/2000/svg" xmlns:xlink="http://www.w3.org/1999/xlink" x="0px" y="0px"
	 width="61.631px" height="60.902px" viewBox="0 0 61.631 60.902" style="enable-background:new 0 0 61.631 60.902;"
	 xml:space="preserve">
<g>
	<circle style="fill:#917D62;" cx="31.491" cy="30.443" r="4.565"/>
	<path style="fill:#917D62;" d="M38.797,30.444c0,4.035-3.271,7.306-7.306,7.306s-7.306-3.271-7.306-7.306
		c0-0.632,0.089-1.241,0.24-1.826h-2.067v10.044c0,0.503,0.409,0.912,0.914,0.912H39.71c0.505,0,0.914-0.409,0.914-0.912V28.617
		h-2.066C38.708,29.201,38.797,29.812,38.797,30.444z"/>
	<path style="fill:#917D62;" d="M30.815,0C13.796,0,0,13.634,0,30.452c0,16.817,13.796,30.45,30.815,30.45S61.63,47.27,61.63,30.452
		C61.63,13.634,47.834,0,30.815,0z M43.362,39.573c0.002,1.514-1.225,2.74-2.737,2.74H22.358c-1.513,0-2.739-1.227-2.739-2.74
		V21.312c0-1.513,1.227-2.738,2.739-2.738h18.266c1.514,0,2.738,1.226,2.738,2.738V39.573z"/>
	<path style="fill:#917D62;" d="M39.711,21.312h-2.739c-0.504,0-0.912,0.409-0.912,0.913v2.74c0,0.504,0.408,0.913,0.912,0.913
		h2.739c0.505,0,0.914-0.409,0.914-0.913v-2.74C40.625,21.721,40.216,21.312,39.711,21.312z"/>
</g>
</svg>
