<?xml version="1.0" encoding="iso-8859-1"?>
<!-- Generator: Adobe Illustrator 16.0.4, SVG Export Plug-In . SVG Version: 6.00 Build 0)  -->
<!DOCTYPE svg PUBLIC "-//W3C//DTD SVG 1.1//EN" "http://www.w3.org/Graphics/SVG/1.1/DTD/svg11.dtd">
<svg version="1.1" id="Layer_1" xmlns="http://www.w3.org/2000/svg" xmlns:xlink="http://www.w3.org/1999/xlink" x="0px" y="0px"
	 width="61.631px" height="60.902px" viewBox="0 0 61.631 60.902" style="enable-background:new 0 0 61.631 60.902;"
	 xml:space="preserve">
<path style="fill:#C6202E;" d="M30.815,0C13.796,0,0,13.634,0,30.452c0,16.817,13.796,30.45,30.815,30.45S61.63,47.27,61.63,30.452
	C61.63,13.634,47.834,0,30.815,0z M34.163,37.866c-1.984,0-3.851-1.038-4.49-2.218c0,0-1.068,4.099-1.293,4.891
	c-0.796,2.795-3.138,5.592-3.319,5.82c-0.127,0.159-0.408,0.109-0.437-0.102c-0.05-0.356-0.647-3.883,0.055-6.76
	c0.353-1.444,2.365-9.693,2.365-9.693s-0.586-1.136-0.586-2.814c0-2.637,1.579-4.604,3.545-4.604c1.671,0,2.479,1.215,2.479,2.671
	c0,1.626-1.07,4.059-1.623,6.312c-0.461,1.887,0.978,3.426,2.901,3.426c3.482,0,5.828-4.329,5.828-9.458
	c0-3.898-2.712-6.817-7.649-6.817c-5.573,0-9.049,4.024-9.049,8.521c0,1.55,0.473,2.644,1.213,3.488
	c0.339,0.389,0.387,0.546,0.264,0.991c-0.089,0.328-0.29,1.116-0.375,1.429c-0.122,0.45-0.499,0.611-0.92,0.444
	c-2.567-1.015-3.764-3.735-3.764-6.796c0-5.053,4.404-11.113,13.137-11.113c7.02,0,11.639,4.914,11.637,10.191
	C44.081,32.653,40.071,37.866,34.163,37.866z"/>
</svg>
