<?xml version="1.0" standalone="no"?>
<!DOCTYPE svg PUBLIC "-//W3C//DTD SVG 20010904//EN"
 "http://www.w3.org/TR/2001/REC-SVG-20010904/DTD/svg10.dtd">
<svg version="1.0" xmlns="http://www.w3.org/2000/svg"
 width="512.000000pt" height="512.000000pt" viewBox="0 0 512.000000 512.000000"
 preserveAspectRatio="xMidYMid meet">
<metadata>
Created by potrace 1.11, written by Peter Selinger 2001-2013
</metadata>
<g transform="translate(0.000000,512.000000) scale(0.100000,-0.100000)"
fill="#000000" stroke="none">
<path d="M2315 5109 c-861 -82 -1642 -613 -2034 -1384 -505 -993 -316 -2188
470 -2974 926 -926 2395 -1005 3415 -183 1100 885 1273 2497 386 3598 -537
667 -1383 1024 -2237 943z m-535 -559 c19 -7 72 -37 117 -67 133 -87 123 -23
123 -776 0 -513 -3 -644 -14 -670 -17 -43 -76 -93 -123 -106 -21 -6 -125 -11
-230 -11 l-193 0 0 826 0 827 143 -6 c78 -2 158 -10 177 -17z m800 -320 c21
-11 51 -36 67 -57 l28 -36 0 -242 0 -242 -28 -36 c-15 -20 -84 -75 -152 -122
-69 -48 -130 -95 -135 -105 -6 -10 -10 -62 -10 -115 l0 -96 53 3 52 3 3 83 3
82 110 0 111 0 -4 -138 c-3 -134 -4 -140 -31 -175 -52 -68 -88 -79 -256 -75
-138 3 -150 5 -184 28 -22 14 -48 46 -62 74 l-25 50 0 488 c0 533 0 530 58
592 45 48 75 55 225 56 118 0 143 -3 177 -20z m553 -1 c100 -52 163 -99 187
-141 l25 -43 3 -542 3 -543 -116 0 -115 0 0 509 0 509 -46 26 c-26 14 -50 26
-55 26 -5 0 -9 -236 -9 -535 l0 -535 -115 0 -115 0 0 558 c0 358 4 571 11 595
12 46 57 99 101 120 51 26 187 23 241 -4z m-2103 -1867 c0 -492 0 -499 21
-518 19 -17 23 -17 47 -3 l27 15 3 502 2 502 115 0 116 0 -3 -539 c-3 -529 -3
-540 -24 -568 -11 -15 -73 -72 -137 -127 l-117 -98 -117 96 c-75 62 -126 112
-140 138 l-23 41 0 529 0 528 115 0 115 0 0 -498z m861 486 c50 -17 83 -45
108 -89 21 -37 22 -48 19 -268 l-3 -229 -31 -38 c-17 -21 -84 -76 -150 -121
-65 -46 -125 -91 -131 -100 -9 -11 -13 -52 -13 -115 l0 -98 50 0 50 0 0 85 0
85 115 0 115 0 0 -124 c0 -135 -7 -166 -48 -209 -45 -48 -78 -59 -192 -65
-176 -8 -261 23 -301 112 -17 38 -19 74 -19 534 0 531 0 533 53 591 44 47 92
61 223 61 67 0 136 -5 155 -12z m451 -73 l3 -86 93 65 c51 36 103 73 117 82
l25 16 0 -135 0 -136 -79 -55 c-94 -67 -136 -112 -150 -163 -7 -24 -11 -184
-11 -420 l0 -383 -110 0 -110 0 0 650 0 650 110 0 109 0 3 -85z m308 -545 l0
-110 -105 0 -105 0 0 110 0 110 105 0 105 0 0 -110z m530 -55 l0 -165 85 0 85
0 0 -115 0 -115 -85 0 -85 0 0 -430 0 -430 85 0 86 0 -3 -112 -3 -113 -125 0
c-146 0 -185 14 -235 84 l-30 43 -3 479 -3 479 -84 0 -85 0 0 115 0 115 85 0
85 0 0 165 0 165 115 0 115 0 0 -165z m-530 -800 l0 -645 -105 0 -105 0 0 645
0 645 105 0 105 0 0 -645z m1243 631 c41 -17 88 -66 104 -108 15 -42 17 -399
2 -451 -15 -55 -55 -95 -189 -188 -138 -96 -143 -104 -138 -229 l3 -75 53 -3
52 -3 0 85 0 86 115 0 115 0 0 -118 c0 -136 -16 -183 -83 -236 -39 -31 -39
-31 -182 -34 -167 -4 -212 9 -261 74 l-29 37 -3 511 c-2 331 1 523 7 546 12
39 49 80 96 104 40 21 290 23 338 2z"/>
<path d="M1690 3746 l0 -596 50 0 50 0 0 568 0 569 -50 27 -50 27 0 -595z"/>
<path d="M2350 3850 c0 -144 3 -179 13 -173 7 4 31 21 55 37 l42 29 0 143 0
144 -55 0 -55 0 0 -180z"/>
<path d="M1690 2459 l0 -181 28 18 c77 50 71 34 72 197 l0 147 -50 0 -50 0 0
-181z"/>
<path d="M3670 1619 c0 -141 3 -179 13 -173 6 4 31 20 55 36 l42 29 0 144 0
145 -55 0 -55 0 0 -181z"/>
</g>
</svg>
