<svg xmlns="http://www.w3.org/2000/svg" width="32" height="32" viewBox="0 0 32 32"><path d="M32 12.679v14.179q0 1.179-.839 2.018t-2.018.839H2.857q-1.179 0-2.018-.839T0 26.858V12.679q.786.875 1.804 1.554 6.464 4.393 8.875 6.161 1.018.75 1.652 1.17t1.688.857 1.964.438h.036q.911 0 1.964-.438t1.688-.857 1.652-1.17q3.036-2.196 8.893-6.161 1.018-.696 1.786-1.554zm0-5.25q0 1.411-.875 2.696t-2.179 2.196q-6.714 4.661-8.357 5.804-.179.125-.759.545t-.964.679-.929.58-1.027.482-.893.161h-.036q-.411 0-.893-.161t-1.027-.482-.929-.58-.964-.679-.759-.545q-1.625-1.143-4.679-3.259t-3.661-2.545q-1.107-.75-2.089-2.063T-.002 7.82q0-1.393.741-2.321t2.116-.929h26.286q1.161 0 2.009.839t.848 2.018z"/></svg>