<svg xmlns="http://www.w3.org/2000/svg" width="27" height="32" viewBox="0 0 27 32"><path d="M4.232 25.25h4.125V12.857H4.232V25.25zM8.625 9.036q-.018-.929-.643-1.536t-1.661-.607-1.688.607-.652 1.536q0 .911.634 1.527t1.652.616h.018q1.054 0 1.696-.616t.643-1.527zM19.071 25.25h4.125v-7.107q0-2.75-1.304-4.161t-3.446-1.411q-2.429 0-3.732 2.089h.036v-1.804h-4.125q.054 1.179 0 12.393h4.125V18.32q0-.679.125-1 .268-.625.804-1.063T17 15.819q2.071 0 2.071 2.804v6.625zm8.358-17.821v17.143q0 2.125-1.509 3.634t-3.634 1.509H5.143q-2.125 0-3.634-1.509T0 24.572V7.429q0-2.125 1.509-3.634t3.634-1.509h17.143q2.125 0 3.634 1.509t1.509 3.634z"/></svg>