<svg viewBox="0 0 491 102" xmlns="http://www.w3.org/2000/svg" xmlns:xlink="http://www.w3.org/1999/xlink"><title>TI logo + short tagline PATHS</title><defs><path id="a" d="M74.19 24.482V48.94H.284V.024H74.19v24.458z"/></defs><g fill="none" fill-rule="evenodd"><g transform="translate(416 53)"><mask id="b" fill="#fff"><use xlink:href="#a"/></mask><path d="M.686 43.077L73.903.18l.287-.156C73.304 27.203 50.994 49 23.59 49 15.15 49 7.281 46.971.284 43.32l.402-.243" fill="#F05529" mask="url(#b)"/></g><path d="M412.348 93.657l11.356-6.729c-4.205-2.372-4.682-6.59-4.682-6.59h-4.873V29.906h-4.364c-.375-9.929 7.166-9.487 7.166-9.487h62.268l.409-.01C470.365 8.488 455.86.764 439.59.764c-27.966 0-50.636 22.662-50.636 50.618 0 17.871 9.158 33.41 23.148 42.417l.246-.142" fill="#F05529"/><path d="M429.212 46.732V35.134c0-1.33-1.369-2.418-3.043-2.418h-4.801c-1.674 0-3.043 1.088-3.043 2.418v11.598h10.887M444.457 46.732V35.134c0-1.33-1.369-2.418-3.043-2.418h-4.801c-1.674 0-3.043 1.088-3.043 2.418v11.598h10.887M459.702 46.732V35.134c0-1.33-1.369-2.418-3.043-2.418h-4.801c-1.674 0-3.043 1.088-3.043 2.418v11.598h10.887M474.947 46.732V35.134c0-1.33-1.369-2.418-3.043-2.418h-4.801c-1.674 0-3.044 1.088-3.044 2.418v11.598h10.888M490.011 46.73a49.76 49.76 0 0 0-3.386-14.008l-.265-.006h-4.012c-1.674 0-3.044 1.088-3.044 2.418v11.598h10.44l.267-.002M440.807 60.2l-.032 16.58 20.353-12.31s-2.494-1.174-3.536-4.27h-16.785M126.034 60.616h12.77V14.123h-12.77zM158.251 37.763v22.853h-12.77V14.123h9.955l18.662 23.64v-23.64h12.769v46.493h-10.15l-18.466-22.853M190.992 36.976c0-2.837.502-5.63 1.506-8.381a22.797 22.797 0 0 1 4.421-7.4c1.941-2.182 4.299-3.95 7.072-5.303 2.772-1.353 5.926-2.031 9.462-2.031 4.147 0 7.77.928 10.87 2.783 3.1 1.856 5.391 4.312 6.876 7.368l-9.757 6.94c-.393-1.135-.907-2.072-1.539-2.815-.633-.743-1.321-1.332-2.062-1.769a7.85 7.85 0 0 0-2.358-.916 11.239 11.239 0 0 0-2.292-.262c-1.616 0-3.002.36-4.158 1.08a9.348 9.348 0 0 0-2.882 2.816c-.763 1.157-1.32 2.467-1.67 3.93a18.697 18.697 0 0 0-.523 4.354c0 1.615.207 3.165.622 4.649.414 1.485 1.025 2.794 1.834 3.929a9.426 9.426 0 0 0 2.946 2.718c1.157.677 2.478 1.015 3.962 1.015.741 0 1.506-.099 2.292-.295a7.66 7.66 0 0 0 2.259-.983 8.313 8.313 0 0 0 1.965-1.767c.589-.721 1.058-1.605 1.407-2.653l10.412 6.221c-.654 1.703-1.648 3.231-2.979 4.584a18.974 18.974 0 0 1-4.551 3.405 23.36 23.36 0 0 1-5.436 2.095c-1.92.48-3.797.72-5.63.72-3.232 0-6.201-.687-8.907-2.062a22.444 22.444 0 0 1-6.973-5.468c-1.944-2.269-3.461-4.845-4.551-7.726-1.092-2.882-1.638-5.806-1.638-8.776M235.128 60.616V14.123h12.769v35.361h21.086v11.132h-33.855M272.321 60.616h12.769V14.123h-12.769zM304.539 37.763v22.853h-12.77V14.123h9.954l18.662 23.64v-23.64h12.77v46.493h-10.151l-18.465-22.853M372.968 49.484v11.132h-33.135V14.123h32.545v11.133h-19.775v6.548h16.895V42.15h-16.895v7.334h20.365" fill="#F05529"/><path fill="#f37e5e" d="M21.937 60.616h-5.894V19.362H0v-5.239h37.98v5.239H21.937v41.254M79.431 60.616h-5.894V39.465H47.934v21.151H42.04V14.123h5.894v20.103h25.603V14.123h5.894v46.493M119.506 60.616H87.943V14.123h30.973v5.239H93.837v15.061h21.806v4.911H93.837v16.044h25.669v5.238"/><path d="M140.116 90.357V92h-12.64V73.185h12.402v1.643H129.33v6.784h9.195v1.564h-9.195v7.181h10.785zm3.434-17.702h1.802v16.218c0 .512.141.914.424 1.206.283.291.68.437 1.192.437.195 0 .424-.026.69-.08a4.55 4.55 0 0 0 .741-.212l.318 1.458a5.948 5.948 0 0 1-1.232.344 7.182 7.182 0 0 1-1.259.133c-.83 0-1.484-.234-1.96-.702-.478-.468-.716-1.126-.716-1.974V72.654zm13.318 19.61c-1.007 0-1.93-.19-2.769-.57a6.786 6.786 0 0 1-2.186-1.563 7.26 7.26 0 0 1-1.445-2.293 7.456 7.456 0 0 1-.516-2.782c0-.972.172-1.886.516-2.743a7.099 7.099 0 0 1 1.431-2.252 6.791 6.791 0 0 1 2.187-1.537 6.664 6.664 0 0 1 2.756-.57c1.007 0 1.93.19 2.769.57.84.38 1.56.896 2.16 1.55a7.277 7.277 0 0 1 1.908 4.956v.423c0 .142-.01.239-.027.292h-11.819c.053.742.225 1.427.517 2.054.291.627.667 1.17 1.126 1.63.46.459.985.817 1.577 1.073a4.718 4.718 0 0 0 1.895.384c.441 0 .883-.062 1.325-.186a5.357 5.357 0 0 0 1.219-.503 4.534 4.534 0 0 0 1.007-.782c.3-.309.53-.649.689-1.02l1.563.424a4.591 4.591 0 0 1-.9 1.391 6.29 6.29 0 0 1-1.352 1.087 6.619 6.619 0 0 1-1.696.715 7.353 7.353 0 0 1-1.935.252zm5.088-7.897a5.576 5.576 0 0 0-.517-2.027 5.518 5.518 0 0 0-1.113-1.577 4.923 4.923 0 0 0-1.563-1.033 4.864 4.864 0 0 0-1.895-.371 4.962 4.962 0 0 0-3.485 1.404 5.08 5.08 0 0 0-1.086 1.59 6.02 6.02 0 0 0-.49 2.014h10.15zM170.452 92l-5.618-13.806h1.855l4.743 12.136 4.77-12.136h1.749L172.333 92h-1.881zm13.344.265c-.653 0-1.258-.11-1.815-.331a4.581 4.581 0 0 1-1.457-.915 4.126 4.126 0 0 1-1.312-3.047c0-.6.141-1.157.424-1.67.282-.512.68-.953 1.192-1.325.513-.37 1.122-.658 1.829-.86a8.42 8.42 0 0 1 2.332-.306c.706 0 1.422.062 2.146.186.725.124 1.37.3 1.935.53v-1.246c0-1.219-.345-2.186-1.034-2.901-.689-.716-1.643-1.073-2.862-1.073-.706 0-1.43.14-2.173.424a10.48 10.48 0 0 0-2.252 1.219l-.636-1.193c1.784-1.201 3.515-1.802 5.194-1.802 1.731 0 3.091.486 4.08 1.457.99.972 1.485 2.315 1.485 4.028v6.228c0 .495.22.742.662.742V92c-.3.053-.53.08-.689.08-.459 0-.817-.115-1.073-.345-.256-.23-.393-.548-.41-.954l-.054-1.087a6.262 6.262 0 0 1-2.398 1.909c-.963.441-2 .662-3.114.662zm.424-1.378c.937 0 1.798-.177 2.584-.53.786-.353 1.382-.821 1.789-1.404a1.65 1.65 0 0 0 .358-.517c.08-.186.119-.358.119-.517v-2.252c-.6-.23-1.224-.407-1.868-.53a10.458 10.458 0 0 0-1.975-.186c-1.272 0-2.305.265-3.1.795-.795.53-1.193 1.228-1.193 2.094 0 .424.084.821.252 1.192.168.371.398.693.69.967.29.274.64.49 1.046.65.406.159.839.238 1.298.238zm17.294.45c-.106.054-.261.124-.464.212a8.22 8.22 0 0 1-1.603.504c-.336.07-.69.106-1.06.106-.39 0-.76-.053-1.113-.159a2.595 2.595 0 0 1-.928-.49c-.265-.221-.477-.5-.636-.835a2.695 2.695 0 0 1-.238-1.166v-9.885h-1.908v-1.43h1.908v-4.665h1.802v4.665h3.18v1.43h-3.18v9.382c.035.512.216.887.543 1.126.327.238.702.358 1.126.358.512 0 .963-.084 1.352-.252.388-.168.636-.287.742-.358l.477 1.458zm2.48.663V78.194h1.801V92h-1.802zm0-16.695v-2.65h1.801v2.65h-1.802zM221.603 92h-1.801v-7.712c0-1.643-.243-2.835-.73-3.577-.485-.742-1.231-1.113-2.238-1.113-.53 0-1.06.097-1.59.291a5.36 5.36 0 0 0-1.471.822c-.45.353-.852.773-1.206 1.259a4.934 4.934 0 0 0-.768 1.576V92h-1.802V78.194h1.643v3.126c.565-1.007 1.373-1.82 2.424-2.438a6.649 6.649 0 0 1 3.432-.927c.76 0 1.405.141 1.935.424a3.3 3.3 0 0 1 1.272 1.192c.318.513.547 1.14.689 1.882.141.742.212 1.563.212 2.465V92zm9.609.186c-.954 0-1.824-.2-2.61-.597a6.732 6.732 0 0 1-2.04-1.576 7.221 7.221 0 0 1-1.339-2.253 7.413 7.413 0 0 1-.477-2.624c0-.954.155-1.868.464-2.742a7.063 7.063 0 0 1 1.311-2.293 6.403 6.403 0 0 1 2.028-1.563c.786-.389 1.656-.583 2.61-.583 1.184 0 2.208.296 3.074.888a8.52 8.52 0 0 1 2.226 2.239v-2.888h1.616v13.859c0 .954-.18 1.798-.543 2.53a5.44 5.44 0 0 1-1.457 1.843 6.2 6.2 0 0 1-2.147 1.112 9.007 9.007 0 0 1-2.61.371c-1.59 0-2.87-.282-3.843-.848a6.774 6.774 0 0 1-2.358-2.279l1.113-.874c.548.883 1.272 1.533 2.173 1.948a6.88 6.88 0 0 0 2.915.623 6.43 6.43 0 0 0 1.908-.279c.6-.185 1.126-.46 1.577-.821.45-.362.808-.822 1.073-1.378.265-.557.397-1.206.397-1.948v-2.73a5.754 5.754 0 0 1-2.173 2.094 5.847 5.847 0 0 1-2.888.769zm.503-1.511c.53 0 1.052-.097 1.564-.291a5.235 5.235 0 0 0 2.438-1.882 3.39 3.39 0 0 0 .556-1.245V82.99a5.378 5.378 0 0 0-.795-1.378 5.52 5.52 0 0 0-1.139-1.087 5.752 5.752 0 0 0-1.365-.715 4.276 4.276 0 0 0-1.47-.265c-.778 0-1.471.163-2.08.49a4.97 4.97 0 0 0-1.551 1.285 5.717 5.717 0 0 0-.967 1.803 6.492 6.492 0 0 0-.332 2.04 5.721 5.721 0 0 0 1.498 3.882 5.282 5.282 0 0 0 1.63 1.193c.618.291 1.29.437 2.013.437zM249.635 92V73.185h7.79c.813 0 1.56.172 2.24.517a5.9 5.9 0 0 1 1.762 1.351 6.412 6.412 0 0 1 1.166 1.895c.283.707.424 1.422.424 2.147 0 .777-.132 1.523-.397 2.239a6.06 6.06 0 0 1-1.113 1.894 5.597 5.597 0 0 1-1.71 1.326c-.662.335-1.4.503-2.212.503h-6.095V92h-1.855zm1.855-8.586h6.015a3.15 3.15 0 0 0 1.497-.358c.45-.238.835-.556 1.153-.954.318-.397.565-.857.742-1.378a5.042 5.042 0 0 0 .265-1.63 4.52 4.52 0 0 0-.305-1.656 4.5 4.5 0 0 0-.821-1.365 3.752 3.752 0 0 0-1.22-.914 3.407 3.407 0 0 0-1.47-.331h-5.856v8.586zM265.974 92V78.194h1.802V92h-1.802zm0-16.695v-2.65h1.802v2.65h-1.802zm12.63 16.032c-.107.054-.261.124-.465.212a8.22 8.22 0 0 1-1.603.504c-.336.07-.689.106-1.06.106-.389 0-.76-.053-1.113-.159a2.595 2.595 0 0 1-.927-.49c-.265-.221-.477-.5-.636-.835a2.695 2.695 0 0 1-.239-1.166v-9.885h-1.908v-1.43h1.908v-4.665h1.802v4.665h3.18v1.43h-3.18v9.382c.035.512.217.887.543 1.126.327.238.703.358 1.127.358.512 0 .962-.084 1.351-.252.389-.168.636-.287.742-.358l.477 1.458zm9.104 0c-.106.054-.26.124-.464.212a8.22 8.22 0 0 1-1.603.504c-.336.07-.689.106-1.06.106-.389 0-.76-.053-1.113-.159a2.595 2.595 0 0 1-.928-.49c-.265-.221-.477-.5-.636-.835a2.695 2.695 0 0 1-.238-1.166v-9.885h-1.908v-1.43h1.908v-4.665h1.802v4.665h3.18v1.43h-3.18v9.382c.035.512.216.887.543 1.126.327.238.702.358 1.126.358.513 0 .963-.084 1.352-.252.389-.168.636-.287.742-.358l.477 1.458zm7.064.928a9.608 9.608 0 0 1-3.153-.53c-1.025-.353-1.908-.866-2.65-1.537l.821-1.219c.778.636 1.568 1.113 2.372 1.431a6.96 6.96 0 0 0 2.584.477c1.113 0 2-.225 2.663-.676.662-.45.994-1.09.994-1.921 0-.389-.089-.711-.265-.967-.177-.256-.438-.482-.782-.676a6.103 6.103 0 0 0-1.299-.517 35.325 35.325 0 0 0-1.815-.463 26.59 26.59 0 0 1-2.067-.584c-.583-.194-1.064-.415-1.444-.662a2.39 2.39 0 0 1-.848-.914c-.186-.362-.278-.817-.278-1.365 0-.689.137-1.298.41-1.828.274-.53.645-.968 1.113-1.312a5.056 5.056 0 0 1 1.643-.782 7.348 7.348 0 0 1 2.001-.265c1.06 0 2.023.172 2.889.517.865.344 1.563.8 2.093 1.365l-.874 1.06a4.848 4.848 0 0 0-1.869-1.193 6.692 6.692 0 0 0-2.292-.397c-.477 0-.918.048-1.325.145a3.19 3.19 0 0 0-1.073.464c-.31.212-.552.481-.729.808-.176.327-.265.711-.265 1.153 0 .371.062.671.186.901.123.23.327.428.61.596.282.168.64.318 1.072.45.433.133.959.27 1.577.412.884.212 1.66.423 2.332.635.672.213 1.232.46 1.683.743.45.282.79.627 1.02 1.033.23.406.345.901.345 1.484 0 1.272-.486 2.279-1.458 3.021-.971.742-2.279 1.113-3.922 1.113zm15.306 0a5.722 5.722 0 0 1-3.008-.822c-.91-.547-1.62-1.254-2.133-2.12V92h-1.616V72.655h1.802v8.427c.618-.936 1.36-1.692 2.226-2.266.865-.574 1.872-.861 3.02-.861.972 0 1.842.203 2.61.61a6.13 6.13 0 0 1 1.962 1.63c.539.68.954 1.448 1.245 2.305.292.857.438 1.735.438 2.636 0 .972-.168 1.89-.504 2.757a7.248 7.248 0 0 1-1.378 2.265 6.54 6.54 0 0 1-2.08 1.537c-.804.38-1.665.57-2.584.57zm-.424-1.59a4.64 4.64 0 0 0 2.08-.464 5.085 5.085 0 0 0 1.617-1.245 6 6 0 0 0 1.06-1.776 5.647 5.647 0 0 0 .384-2.053c0-.725-.12-1.423-.358-2.094a5.824 5.824 0 0 0-1.007-1.789 4.88 4.88 0 0 0-1.563-1.245 4.359 4.359 0 0 0-2.001-.464c-.548 0-1.06.093-1.537.278a5.193 5.193 0 0 0-1.325.756 6.1 6.1 0 0 0-1.086 1.1 6.928 6.928 0 0 0-.795 1.311v4.293c.07.477.26.923.57 1.338.308.415.68.773 1.112 1.074.433.3.901.538 1.405.715a4.36 4.36 0 0 0 1.444.265zm14.564 1.59c-1.502 0-2.62-.5-3.352-1.497-.734-.998-1.1-2.487-1.1-4.466v-8.109h1.802v7.791c0 3.128 1.069 4.691 3.206 4.691.53 0 1.051-.088 1.564-.265a4.912 4.912 0 0 0 1.418-.769 6.224 6.224 0 0 0 1.166-1.192c.344-.46.622-.98.834-1.564v-8.692h1.802v11.475c0 .495.212.742.636.742V92a3.284 3.284 0 0 1-.516.053h-.279c-.424-.018-.768-.168-1.033-.45-.265-.283-.398-.663-.398-1.14v-1.59c-.6 1.078-1.417 1.912-2.45 2.504a6.535 6.535 0 0 1-3.3.888zm18.539-12.481c-1.22.035-2.28.37-3.18 1.006-.901.637-1.537 1.511-1.908 2.624V92h-1.802V78.194h1.696v3.312c.512-1.06 1.201-1.89 2.067-2.491.865-.6 1.793-.901 2.782-.901.141 0 .256.009.345.026v1.644zm7.488 12.401c-.954 0-1.824-.198-2.61-.596a6.732 6.732 0 0 1-2.04-1.576 7.221 7.221 0 0 1-1.34-2.253 7.413 7.413 0 0 1-.476-2.624c0-.954.154-1.868.464-2.742a7.063 7.063 0 0 1 1.311-2.293 6.403 6.403 0 0 1 2.028-1.563c.786-.389 1.656-.583 2.61-.583 1.184 0 2.208.296 3.074.888a8.52 8.52 0 0 1 2.226 2.239v-2.888h1.616v13.859c0 .954-.18 1.798-.543 2.53a5.44 5.44 0 0 1-1.457 1.843 6.2 6.2 0 0 1-2.147 1.112 9.007 9.007 0 0 1-2.61.371c-1.59 0-2.87-.282-3.843-.848a6.774 6.774 0 0 1-2.358-2.279l1.113-.874c.548.883 1.272 1.533 2.173 1.948a6.88 6.88 0 0 0 2.915.623 6.43 6.43 0 0 0 1.908-.279c.6-.185 1.126-.46 1.577-.821.45-.362.808-.822 1.073-1.378.265-.557.397-1.206.397-1.948v-2.73a5.754 5.754 0 0 1-2.173 2.094 5.847 5.847 0 0 1-2.888.769zm.503-1.51c.53 0 1.052-.097 1.564-.291a5.235 5.235 0 0 0 2.438-1.882 3.39 3.39 0 0 0 .556-1.245V82.99a5.378 5.378 0 0 0-.795-1.378 5.52 5.52 0 0 0-1.14-1.087 5.751 5.751 0 0 0-1.364-.715 4.276 4.276 0 0 0-1.47-.265c-.778 0-1.471.163-2.08.49a4.97 4.97 0 0 0-1.551 1.285 5.717 5.717 0 0 0-.967 1.803 6.492 6.492 0 0 0-.332 2.04 5.722 5.722 0 0 0 1.498 3.882 5.282 5.282 0 0 0 1.63 1.193c.618.291 1.29.437 2.013.437zM372.918 92h-1.802v-7.712c0-1.572-.27-2.747-.809-3.524-.538-.777-1.329-1.166-2.371-1.166-.513 0-1.02.102-1.524.305a5.736 5.736 0 0 0-2.57 2.08c-.327.477-.57.998-.73 1.564V92h-1.801V72.655h1.802v8.665a6.26 6.26 0 0 1 2.279-2.464 5.888 5.888 0 0 1 3.153-.901c.795 0 1.467.146 2.014.437.548.292.998.698 1.352 1.22.353.52.61 1.148.768 1.88.16.734.239 1.542.239 2.425V92z" fill="#F05529"/></g></svg>
