<svg xmlns="http://www.w3.org/2000/svg" viewBox="0 0 28 28"><title>envelope-open</title><path d="M28 10.219V25.5c0 1.375-1.125 2.5-2.5 2.5h-23A2.507 2.507 0 0 1 0 25.5V10.219a.5.5 0 0 1 .172-.375c1.641-1.437 1.656-1.609 9.812-7.562C10.968 1.563 12.703.001 14 .001s3.047 1.578 4.016 2.281c8.156 5.953 8.172 6.125 9.812 7.562a.5.5 0 0 1 .172.375zm-8.813 9.14c2.438-1.766 4.141-3 5.391-3.938a.48.48 0 0 0 .094-.688l-.594-.812a.5.5 0 0 0-.703-.094c-1.234.906-2.922 2.156-5.359 3.906-.969.703-2.719 2.266-4.016 2.266s-3.047-1.563-4.016-2.266c-2.438-1.766-4.125-3-5.359-3.906a.5.5 0 0 0-.703.094l-.594.812a.48.48 0 0 0 .094.688c1.25.938 2.953 2.172 5.391 3.938C10.032 20.234 11.954 22 14 22c2.063 0 4.031-1.797 5.187-2.641z"/></svg>