<svg xmlns="http://www.w3.org/2000/svg" viewBox="-949 951 100 100"><g><path d="M-861.5 954c-.5-.4-1.2-.6-1.8-.5l-53.6 8.9c-1.1.2-1.9 1.1-1.9 2.2v19.9c0 1.2 1 2.2 2.2 2.2s2.2-1 2.2-2.2v-18l49.1-8.2v85.3l-49.1-8.2v-18c0-1.2-1-2.2-2.2-2.2s-2.2 1-2.2 2.2v19.9c0 1.1.8 2 1.9 2.2l53.6 8.9h.4c.5 0 1-.2 1.4-.5.5-.4.8-1 .8-1.7v-90.5c0-.6-.3-1.2-.8-1.7z"/><path d="M-900.4 1018c-.9.9-.9 2.3 0 3.2.4.4 1 .7 1.6.7s1.1-.2 1.6-.7l18.7-18.7c.9-.9.9-2.3 0-3.2l-18.7-18.7c-.9-.9-2.3-.9-3.2 0-.9.9-.9 2.3 0 3.2l14.8 14.8H-935c-1.2 0-2.2 1-2.2 2.2s1 2.2 2.2 2.2h49.6l-15 15z"/></g></svg>
