<svg xmlns="http://www.w3.org/2000/svg" viewBox="0 0 31 32"><title>icon-external-link_16x16</title><path d="M1.952 32C.876 32 0 31.104 0 29.998V2C0 .896.876 0 1.952 0h12.68c.54 0 .974.448.974 1v2c0 .554-.436 1-.974 1H3.902v24h23.412V16.998c0-.55.436-.998.974-.998h1.952c.54 0 .974.448.974.998v13c0 1.106-.876 2.002-1.952 2.002H1.952z"/><path d="M30.24.002h-9.756a.97.97 0 0 0-.9.618c-.154.372-.07.8.212 1.088l3.498 3.586-9.756 10a1.016 1.016 0 0 0 0 1.414l1.38 1.414a.96.96 0 0 0 1.38 0l9.756-10 3.496 3.586a.962.962 0 0 0 1.064.214.995.995 0 0 0 .602-.922V1a.989.989 0 0 0-.976-.998z"/></svg>