<svg xmlns="http://www.w3.org/2000/svg" viewBox="0 0 36 28"><path d="M12.25 21.438l.25-3.766-.25-8.172c-.016-.203-.172-.375-.375-.375-.187 0-.359.172-.359.375l-.219 8.172.219 3.766c.016.203.172.359.359.359a.377.377 0 0 0 .375-.359zm4.625-.454l.172-3.297-.187-9.156a.44.44 0 0 0-.203-.375c-.078-.047-.156-.078-.25-.078s-.172.031-.25.078a.44.44 0 0 0-.203.375l-.016.094-.156 9.047.172 3.687v.016c0 .094.031.187.094.266a.47.47 0 0 0 .359.172.453.453 0 0 0 .313-.141.392.392 0 0 0 .141-.313zM.547 15.672l.313 2-.313 1.969c-.016.078-.063.141-.141.141s-.125-.063-.141-.141l-.266-1.969.266-2c.016-.078.063-.141.141-.141s.125.063.141.141zm1.344-1.234l.406 3.234-.406 3.172c-.016.078-.078.141-.156.141s-.141-.063-.141-.156l-.359-3.156.359-3.234c0-.078.063-.141.141-.141s.141.063.156.141zm4.375 7.078zm-2.938-7.672l.391 3.828-.391 3.703c0 .094-.078.172-.172.172s-.172-.078-.187-.172l-.328-3.703.328-3.828c.016-.109.094-.187.187-.187s.172.078.172.187zm1.469-.11l.359 3.938-.359 3.813c-.016.125-.109.203-.219.203s-.203-.078-.203-.203l-.328-3.813.328-3.938c0-.125.094-.203.203-.203s.203.078.219.203zm1.469.282l.328 3.656-.328 3.844c-.016.141-.125.25-.25.25s-.234-.109-.234-.25l-.313-3.844.313-3.656c0-.125.109-.234.234-.234s.234.109.25.234zm5.984 7.422zm-4.516-9.704l.328 5.938-.328 3.844c0 .156-.125.281-.266.281-.156 0-.266-.125-.281-.281l-.281-3.844.281-5.938c.016-.156.125-.281.281-.281.141 0 .266.125.266.281zm1.469-1.343l.297 7.313-.297 3.813a.297.297 0 0 1-.297.297c-.172 0-.297-.125-.313-.297l-.25-3.813.25-7.313c.016-.172.141-.297.313-.297.156 0 .297.125.297.297zm1.531-.625l.281 7.906-.281 3.781a.344.344 0 0 1-.344.328c-.172 0-.313-.141-.328-.328l-.25-3.781.25-7.906c0-.187.156-.344.328-.344.187 0 .328.156.344.344zm6.125 11.593zM13.766 9.703L14 17.672l-.234 3.734c0 .219-.172.391-.391.391s-.375-.172-.391-.391l-.219-3.734.219-7.969c0-.219.172-.391.391-.391s.391.172.391.391zm1.547.297l.219 7.688-.219 3.687c0 .234-.187.422-.422.422s-.422-.187-.438-.422l-.187-3.687.187-7.688c.016-.25.203-.438.438-.438s.406.187.422.438zm3.312 7.687l-.219 3.609c0 .266-.219.484-.484.484s-.484-.219-.5-.484l-.094-1.781-.094-1.828.187-9.938v-.047a.581.581 0 0 1 .187-.375.5.5 0 0 1 .313-.109c.078 0 .172.031.234.078a.516.516 0 0 1 .25.406zM36 17.391c0 2.438-1.984 4.406-4.422 4.406H19.297c-.266-.031-.484-.234-.484-.516V7.234c0-.266.094-.391.438-.516a7.645 7.645 0 0 1 2.828-.531c4.078 0 7.422 3.125 7.781 7.109a4.43 4.43 0 0 1 6.141 4.094z"/></svg>