<svg xmlns="http://www.w3.org/2000/svg" viewBox="0 0 511.333 86.782"><g fill="#333"><path d="M99.412 76.968V62.166h6.286c.645 0 1.24.136 1.787.407a4.636 4.636 0 0 1 1.409 1.062c.392.438.697.936.914 1.491.218.556.326 1.118.326 1.688 0 .542-.081 1.06-.242 1.553a4.622 4.622 0 0 1-.683 1.334c-.295.396-.646.73-1.052 1.001a3.709 3.709 0 0 1-1.366.553l3.68 5.712h-1.661l-3.532-5.462h-4.416v5.462h-1.45zm1.45-6.755h4.899c.435 0 .83-.094 1.188-.281s.662-.44.915-.761c.252-.319.448-.681.589-1.084.14-.403.21-.827.21-1.271s-.081-.872-.242-1.282-.378-.768-.651-1.073-.596-.549-.967-.73a2.648 2.648 0 0 0-1.167-.271h-4.773v6.753zm16.863 6.963c-.8 0-1.535-.149-2.208-.447a5.35 5.35 0 0 1-1.745-1.23 5.683 5.683 0 0 1-1.146-1.804 5.824 5.824 0 0 1-.41-2.188c0-.765.137-1.483.41-2.157a5.43 5.43 0 0 1 1.146-1.772c.49-.507 1.068-.91 1.734-1.209s1.398-.448 2.197-.448 1.531.149 2.197.448a5.24 5.24 0 0 1 1.714 1.22 5.677 5.677 0 0 1 1.513 3.898c0 .111-.004.222-.011.333s-.018.188-.031.229h-9.356c.042.584.179 1.122.41 1.615.231.494.525.921.883 1.282.357.362.771.644 1.24.845s.971.302 1.504.302a4.247 4.247 0 0 0 2.039-.542c.294-.166.558-.371.788-.614.231-.243.41-.511.536-.803l1.241.333a3.627 3.627 0 0 1-.715 1.095 4.987 4.987 0 0 1-1.072.854 5.251 5.251 0 0 1-1.346.563 5.824 5.824 0 0 1-1.512.197zm4.036-6.212a4.363 4.363 0 0 0-.41-1.595c-.23-.479-.525-.893-.883-1.24s-.774-.618-1.251-.813a3.978 3.978 0 0 0-1.514-.292c-.533 0-1.037.098-1.514.292-.477.195-.894.466-1.251.813s-.646.765-.862 1.251a4.684 4.684 0 0 0-.389 1.584h8.074zm3.512-7.13v-2.085h1.43v2.085h-1.43zm0 13.134V66.106h1.43v10.861h-1.43zm20.794 0h-1.431v-6.066c0-1.265-.199-2.196-.599-2.794-.399-.597-1.006-.896-1.818-.896-.421 0-.817.077-1.188.229a3.68 3.68 0 0 0-1.03.646 4.444 4.444 0 0 0-.83.99 4.734 4.734 0 0 0-.547 1.262v6.629h-1.43v-6.066c0-1.293-.196-2.23-.589-2.814s-.995-.876-1.809-.876c-.827 0-1.562.285-2.207.855-.646.569-1.107 1.32-1.388 2.251v6.65h-1.43V66.106h1.304v2.46c.448-.834 1.037-1.483 1.766-1.949s1.535-.698 2.418-.698c.925 0 1.668.257 2.229.771.561.514.897 1.188 1.01 2.021 1.022-1.861 2.438-2.793 4.247-2.793.603 0 1.117.111 1.545.333.428.223.771.539 1.03.949s.448.903.568 1.479a9.65 9.65 0 0 1 .179 1.929v6.36zm5.865.208a4.353 4.353 0 0 1-1.535-.26 3.57 3.57 0 0 1-1.188-.72 3.276 3.276 0 0 1-.768-1.063 3.032 3.032 0 0 1-.273-1.271c0-.5.112-.955.336-1.365.225-.41.54-.761.946-1.053s.894-.518 1.462-.678a6.957 6.957 0 0 1 1.882-.239c.546 0 1.106.049 1.682.146a7.477 7.477 0 0 1 1.535.417v-.979c0-.959-.277-1.72-.831-2.283-.554-.562-1.3-.844-2.239-.844-.589 0-1.174.111-1.755.333a8.446 8.446 0 0 0-1.777.959l-.504-.938c.715-.473 1.408-.827 2.081-1.063s1.374-.354 2.103-.354c1.331 0 2.39.382 3.175 1.146s1.178 1.821 1.178 3.169v4.898c0 .39.168.584.504.584v1.251a5.962 5.962 0 0 1-.567.042c-.28 0-.536-.084-.768-.25-.231-.167-.36-.417-.389-.751l-.042-.854c-.477.64-1.104 1.136-1.882 1.49s-1.567.53-2.366.53zm.358-1.084c.631 0 1.258-.135 1.882-.406.623-.271 1.117-.643 1.482-1.115.098-.125.182-.261.252-.406a.945.945 0 0 0 .105-.406v-1.772a8.821 8.821 0 0 0-1.493-.417 8.23 8.23 0 0 0-1.514-.146c-1.023 0-1.854.205-2.491.614-.639.41-.957.977-.957 1.699 0 .292.056.577.168.854.112.278.284.528.516.751s.515.403.852.542c.335.138.735.208 1.198.208zm12.699 1.021a4.546 4.546 0 0 1-2.071-.469 5.318 5.318 0 0 1-1.619-1.24 5.645 5.645 0 0 1-1.062-1.772 5.767 5.767 0 0 1-.379-2.063c0-.75.123-1.47.368-2.157a5.543 5.543 0 0 1 1.041-1.804 5.054 5.054 0 0 1 1.608-1.229 4.631 4.631 0 0 1 2.07-.459c.939 0 1.753.232 2.439.698s1.275 1.053 1.766 1.762v-2.272h1.283V77.01c0 .75-.145 1.414-.432 1.99a4.273 4.273 0 0 1-1.156 1.449 4.933 4.933 0 0 1-1.713.876 7.34 7.34 0 0 1-2.082.291c-1.248 0-2.257-.222-3.027-.667a5.329 5.329 0 0 1-1.871-1.793l.883-.688A3.938 3.938 0 0 0 162.759 80a5.46 5.46 0 0 0 2.292.49c.532 0 1.041-.073 1.524-.219a3.758 3.758 0 0 0 1.262-.646c.357-.285.642-.646.852-1.084.21-.438.315-.949.315-1.532v-2.147a4.73 4.73 0 0 1-1.734 1.646 4.604 4.604 0 0 1-2.281.605zm.399-1.187c.42 0 .833-.076 1.24-.229a4.16 4.16 0 0 0 1.935-1.48c.224-.319.371-.646.441-.979V69.88a4.04 4.04 0 0 0-.642-1.084 4.571 4.571 0 0 0-1.997-1.417 3.418 3.418 0 0 0-1.167-.208c-.617 0-1.164.128-1.641.386a3.962 3.962 0 0 0-1.219 1.011c-.337.417-.593.89-.768 1.418a5.038 5.038 0 0 0-.263 1.604c0 .584.104 1.14.315 1.668.21.528.497.99.861 1.387.365.396.796.709 1.294.938.5.228 1.036.343 1.611.343zm8.116-12.092v-2.085h1.43v2.085h-1.43zm0 13.134V66.106h1.43v10.861h-1.43zm13.708 0h-1.43v-6.066c0-1.293-.189-2.23-.567-2.814-.379-.584-.968-.876-1.767-.876-.421 0-.841.077-1.262.229-.42.153-.812.369-1.178.646a4.61 4.61 0 0 0-.956.99c-.273.383-.48.796-.62 1.24v6.65h-1.43V66.106h1.304v2.46c.224-.389.501-.747.83-1.073a5.442 5.442 0 0 1 2.397-1.387 5.345 5.345 0 0 1 1.42-.188c.616 0 1.132.111 1.545.333.413.223.746.535.999.938.252.403.435.896.547 1.48.111.583.168 1.229.168 1.938v6.361zm2.965-13.134v-2.085h1.43v2.085h-1.43zm0 13.134V66.106h1.43v10.861h-1.43zm13.708 0h-1.43v-6.066c0-1.293-.189-2.23-.567-2.814-.379-.584-.968-.876-1.767-.876-.421 0-.841.077-1.262.229-.42.153-.812.369-1.178.646a4.61 4.61 0 0 0-.956.99c-.273.383-.48.796-.62 1.24v6.65h-1.43V66.106h1.304v2.46c.224-.389.501-.747.83-1.073a5.442 5.442 0 0 1 2.397-1.387 5.345 5.345 0 0 1 1.42-.188c.616 0 1.132.111 1.545.333.413.223.746.535.999.938.252.403.435.896.547 1.48.111.583.168 1.229.168 1.938v6.361zm7.402.145a4.546 4.546 0 0 1-2.071-.469 5.318 5.318 0 0 1-1.619-1.24 5.645 5.645 0 0 1-1.062-1.772 5.767 5.767 0 0 1-.379-2.063c0-.75.123-1.47.368-2.157a5.543 5.543 0 0 1 1.041-1.804 5.054 5.054 0 0 1 1.608-1.229 4.631 4.631 0 0 1 2.07-.459c.939 0 1.753.232 2.439.698s1.275 1.053 1.766 1.762v-2.272h1.283V77.01c0 .75-.145 1.414-.432 1.99a4.273 4.273 0 0 1-1.156 1.449 4.933 4.933 0 0 1-1.713.876 7.34 7.34 0 0 1-2.082.291c-1.248 0-2.257-.222-3.027-.667a5.329 5.329 0 0 1-1.871-1.793l.883-.688A3.938 3.938 0 0 0 209.057 80a5.46 5.46 0 0 0 2.292.49c.532 0 1.041-.073 1.524-.219a3.758 3.758 0 0 0 1.262-.646c.357-.285.642-.646.852-1.084.21-.438.315-.949.315-1.532v-2.147a4.73 4.73 0 0 1-1.734 1.646 4.607 4.607 0 0 1-2.281.605zm.399-1.187c.42 0 .833-.076 1.24-.229a4.16 4.16 0 0 0 1.935-1.48c.224-.319.371-.646.441-.979V69.88a4.04 4.04 0 0 0-.642-1.084 4.571 4.571 0 0 0-1.997-1.417 3.418 3.418 0 0 0-1.167-.208c-.617 0-1.164.128-1.641.386a3.962 3.962 0 0 0-1.219 1.011c-.337.417-.593.89-.768 1.418a5.038 5.038 0 0 0-.263 1.604c0 .584.104 1.14.315 1.668.21.528.497.99.861 1.387.365.396.796.709 1.294.938.5.228 1.036.343 1.611.343zm13.856 1.042V62.166h1.45v13.509h8.642v1.293h-10.092zm16.293.208a5.317 5.317 0 0 1-2.197-.447 5.35 5.35 0 0 1-1.724-1.22 5.524 5.524 0 0 1-1.125-1.793 5.826 5.826 0 0 1-.399-2.147 5.773 5.773 0 0 1 1.545-3.961 5.461 5.461 0 0 1 1.725-1.229c.665-.306 1.391-.459 2.176-.459s1.51.153 2.176.459 1.241.716 1.725 1.229a5.773 5.773 0 0 1 1.545 3.961 5.71 5.71 0 0 1-.41 2.147 5.652 5.652 0 0 1-1.135 1.793 5.286 5.286 0 0 1-3.902 1.667zm-3.973-5.587c0 .612.102 1.179.305 1.699.203.521.483.98.841 1.376.357.396.778.706 1.262.928.483.223.999.334 1.545.334.547 0 1.062-.115 1.546-.345a4.095 4.095 0 0 0 1.271-.938c.365-.396.652-.858.862-1.387s.315-1.098.315-1.709c0-.598-.105-1.164-.315-1.699s-.497-1.001-.862-1.396a4.137 4.137 0 0 0-1.261-.938c-.477-.229-.988-.344-1.535-.344s-1.062.114-1.545.344a3.92 3.92 0 0 0-1.262.948 4.693 4.693 0 0 0-1.167 3.127zm11.038-.083c0-.765.133-1.487.399-2.168a5.391 5.391 0 0 1 1.125-1.782c.483-.508 1.062-.907 1.734-1.199s1.415-.438 2.229-.438c1.037 0 1.941.232 2.712.698a4.501 4.501 0 0 1 1.745 1.887l-1.388.438c-.308-.556-.735-.99-1.282-1.303s-1.156-.469-1.829-.469c-.561 0-1.083.111-1.566.333a4.022 4.022 0 0 0-1.262.907c-.357.383-.638.837-.841 1.365s-.305 1.105-.305 1.73c0 .611.104 1.188.315 1.73.21.542.497 1.011.861 1.407a4.11 4.11 0 0 0 1.272.938c.483.229.999.345 1.545.345a4.018 4.018 0 0 0 1.998-.552c.294-.174.547-.372.757-.594.21-.223.357-.459.441-.709l1.388.417a3.525 3.525 0 0 1-.673 1.073c-.294.327-.642.611-1.041.854s-.841.432-1.324.563-.985.197-1.503.197c-.8 0-1.535-.149-2.208-.447a5.35 5.35 0 0 1-1.745-1.23 5.683 5.683 0 0 1-1.146-1.804 5.85 5.85 0 0 1-.408-2.187zm15.181 5.67a4.353 4.353 0 0 1-1.535-.26 3.57 3.57 0 0 1-1.188-.72 3.276 3.276 0 0 1-.768-1.063 3.032 3.032 0 0 1-.273-1.271c0-.5.112-.955.336-1.365.225-.41.54-.761.946-1.053s.894-.518 1.462-.678a6.957 6.957 0 0 1 1.882-.239c.546 0 1.106.049 1.682.146a7.477 7.477 0 0 1 1.535.417v-.979c0-.959-.277-1.72-.831-2.283-.554-.562-1.3-.844-2.239-.844-.589 0-1.174.111-1.755.333a8.446 8.446 0 0 0-1.777.959l-.504-.938c.715-.473 1.408-.827 2.081-1.063s1.374-.354 2.103-.354c1.331 0 2.39.382 3.175 1.146s1.178 1.821 1.178 3.169v4.898c0 .39.168.584.504.584v1.251a5.962 5.962 0 0 1-.567.042c-.28 0-.536-.084-.768-.25-.231-.167-.36-.417-.389-.751l-.042-.854c-.477.64-1.104 1.136-1.882 1.49s-1.568.53-2.366.53zm.357-1.084c.631 0 1.258-.135 1.882-.406.623-.271 1.117-.643 1.482-1.115.098-.125.182-.261.252-.406a.945.945 0 0 0 .105-.406v-1.772a8.821 8.821 0 0 0-1.493-.417 8.23 8.23 0 0 0-1.514-.146c-1.023 0-1.854.205-2.491.614-.639.41-.957.977-.957 1.699 0 .292.056.577.168.854.112.278.284.528.516.751s.515.403.852.542c.336.138.735.208 1.198.208zm8.325-14.343h1.43v12.759c0 .403.112.719.337.948.224.229.539.345.946.345.153 0 .336-.021.546-.062a3.69 3.69 0 0 0 .589-.167l.253 1.146a4.82 4.82 0 0 1-.978.271 5.802 5.802 0 0 1-.999.104c-.659 0-1.178-.184-1.556-.553-.379-.368-.568-.886-.568-1.553V61.749zm12.089 3.128v12.091h-1.45V62.166h1.135l9.882 12.321v-12.3h1.451v14.78h-1.262l-9.756-12.09zm19.239 12.299c-.8 0-1.535-.149-2.208-.447a5.35 5.35 0 0 1-1.745-1.23 5.683 5.683 0 0 1-1.146-1.804 5.824 5.824 0 0 1-.41-2.188c0-.765.137-1.483.41-2.157a5.43 5.43 0 0 1 1.146-1.772c.49-.507 1.068-.91 1.734-1.209s1.398-.448 2.197-.448 1.531.149 2.197.448a5.24 5.24 0 0 1 1.714 1.22 5.677 5.677 0 0 1 1.513 3.898c0 .111-.004.222-.011.333s-.018.188-.031.229h-9.356c.042.584.179 1.122.41 1.615.231.494.525.921.883 1.282.357.362.771.644 1.24.845s.971.302 1.504.302a4.247 4.247 0 0 0 2.039-.542c.294-.166.558-.371.788-.614.231-.243.41-.511.536-.803l1.241.333a3.627 3.627 0 0 1-.715 1.095 4.987 4.987 0 0 1-1.072.854 5.251 5.251 0 0 1-1.346.563 5.824 5.824 0 0 1-1.512.197zm4.036-6.212a4.363 4.363 0 0 0-.41-1.595c-.23-.479-.525-.893-.883-1.24s-.774-.618-1.251-.813a3.978 3.978 0 0 0-1.514-.292c-.533 0-1.037.098-1.514.292-.477.195-.894.466-1.251.813s-.646.765-.862 1.251a4.684 4.684 0 0 0-.389 1.584h8.074zm17.053-4.858h1.388l-4.689 10.861h-1.198l-2.334-5.545-2.334 5.545h-1.198l-4.688-10.861h1.366l3.995 9.402 2.082-4.962-1.872-4.42h1.22l1.43 3.544 1.409-3.544h1.22l-1.851 4.42 2.081 4.962 3.973-9.402zm6.643 11.07a7.716 7.716 0 0 1-2.502-.416 6.043 6.043 0 0 1-2.103-1.21l.652-.959a7.09 7.09 0 0 0 1.882 1.126c.638.25 1.32.375 2.05.375.883 0 1.587-.177 2.113-.531.525-.354.788-.858.788-1.512 0-.306-.07-.559-.21-.761-.141-.201-.347-.378-.62-.531s-.617-.288-1.03-.406c-.414-.118-.894-.24-1.44-.365a20.688 20.688 0 0 1-1.64-.459c-.463-.152-.845-.326-1.146-.521s-.525-.435-.673-.72c-.147-.284-.221-.643-.221-1.073 0-.542.108-1.021.326-1.438.217-.417.512-.761.883-1.032a4.021 4.021 0 0 1 1.304-.615 5.868 5.868 0 0 1 1.587-.208c.842 0 1.605.136 2.292.406.687.271 1.241.629 1.661 1.074l-.693.833a3.876 3.876 0 0 0-1.482-.938 5.339 5.339 0 0 0-1.819-.312c-.378 0-.729.038-1.051.114s-.606.198-.852.365a1.798 1.798 0 0 0-.578.636c-.141.257-.21.56-.21.906 0 .292.049.528.146.709.099.181.26.337.483.469.225.133.509.251.852.354.344.104.761.212 1.251.323a27.99 27.99 0 0 1 1.851.501c.532.166.978.361 1.335.583.357.223.627.494.81.813s.273.709.273 1.167c0 1.001-.386 1.793-1.156 2.377-.772.585-1.81.876-3.113.876z" opacity=".8"/><path d="M124.086 26.309a30.85 30.85 0 0 0-3.48-1.797c-1.011-.448-2.143-.87-3.396-1.263s-2.479-.59-3.677-.59c-.974 0-1.75.15-2.33.449-.581.3-.87.806-.87 1.516 0 .525.168.955.505 1.292s.823.646 1.46.926c.636.281 1.412.553 2.33.814.916.262 1.955.58 3.115.954 1.834.562 3.489 1.179 4.969 1.853 1.478.674 2.741 1.47 3.789 2.386a9.188 9.188 0 0 1 2.414 3.341c.562 1.311.842 2.9.842 4.771 0 2.396-.439 4.407-1.318 6.035-.88 1.628-2.041 2.929-3.481 3.902s-3.069 1.675-4.884 2.104c-1.815.43-3.641.646-5.474.646a30.93 30.93 0 0 1-4.491-.337 38.734 38.734 0 0 1-4.575-.954 39.92 39.92 0 0 1-4.379-1.459 28.064 28.064 0 0 1-3.902-1.909l4.716-9.6a33.03 33.03 0 0 0 4.099 2.189c1.197.561 2.555 1.066 4.07 1.516s3.06.674 4.631.674c1.197 0 2.03-.159 2.499-.478.467-.317.701-.738.701-1.263 0-.562-.234-1.039-.701-1.432-.469-.394-1.114-.739-1.938-1.039a40.05 40.05 0 0 0-2.835-.898 61.523 61.523 0 0 1-3.396-1.066c-1.76-.599-3.275-1.244-4.547-1.937-1.273-.692-2.321-1.479-3.145-2.358a8.414 8.414 0 0 1-1.824-3.003c-.393-1.123-.59-2.414-.59-3.874 0-2.208.402-4.154 1.207-5.839.805-1.684 1.899-3.087 3.284-4.21s2.966-1.974 4.744-2.555c1.777-.58 3.658-.87 5.643-.87 1.459 0 2.881.141 4.267.421 1.384.281 2.723.637 4.014 1.067s2.498.897 3.621 1.403c1.123.505 2.133.982 3.031 1.432l-4.718 9.04zm9.375 26.835v-39.86h17.179c1.945 0 3.742.402 5.39 1.207 1.646.806 3.06 1.853 4.238 3.144s2.105 2.771 2.779 4.436c.673 1.666 1.01 3.34 1.01 5.024 0 1.76-.318 3.472-.954 5.137a14.377 14.377 0 0 1-2.667 4.435c-1.142 1.292-2.526 2.321-4.154 3.088-1.628.768-3.415 1.151-5.361 1.151h-6.512v12.238h-10.948zm10.948-21.783h5.782c.674 0 1.3-.309 1.881-.927.58-.617.87-1.73.87-3.34 0-1.646-.337-2.77-1.011-3.368s-1.348-.898-2.021-.898h-5.502v8.533zm22.736 21.783v-39.86h10.947v39.859h-10.947zm16.111 0v-39.86h18.302c1.945 0 3.741.402 5.389 1.207 1.646.806 3.06 1.853 4.239 3.144a14.693 14.693 0 0 1 2.778 4.436c.674 1.666 1.011 3.34 1.011 5.024 0 2.321-.505 4.482-1.516 6.484s-2.414 3.64-4.211 4.912l8.982 14.652h-12.35l-7.579-12.238h-4.098v12.238h-10.947zm10.948-21.783h6.905c.674 0 1.3-.374 1.881-1.123.579-.748.87-1.796.87-3.144 0-1.385-.337-2.442-1.011-3.172s-1.348-1.095-2.021-1.095h-6.624v8.534zm26.441 21.783v-39.86h10.947v39.859h-10.947zm47.718-30.316h-11.452v30.315h-10.947V22.828h-11.509v-9.544h33.908v9.544zM299.632 43.6v9.544h-28.406v-39.86h27.901v9.544h-16.954v5.614h14.483v8.87h-14.483V43.6h17.459zm3.986 9.544v-39.86h15.326c3.293 0 6.193.524 8.701 1.572 2.507 1.048 4.604 2.47 6.288 4.267 1.684 1.796 2.956 3.901 3.817 6.315.86 2.414 1.291 4.987 1.291 7.72 0 3.031-.477 5.773-1.432 8.224-.954 2.452-2.312 4.548-4.07 6.288s-3.873 3.088-6.344 4.042c-2.47.954-5.221 1.432-8.252 1.432h-15.325zm24.308-19.986c0-1.534-.206-2.938-.618-4.211-.412-1.271-1.001-2.357-1.768-3.256a7.974 7.974 0 0 0-2.836-2.105c-1.122-.505-2.377-.758-3.761-.758h-4.379V43.6h4.379c1.422 0 2.694-.262 3.817-.786a7.965 7.965 0 0 0 2.835-2.189c.767-.935 1.348-2.039 1.74-3.312.395-1.273.591-2.658.591-4.155z"/><path opacity=".5" d="M372.894 53.144V32.147l-6.681 14.765h-5.838l-6.681-14.765v20.996h-10.947V13.284h11.958l8.589 18.751 8.646-18.751h11.901v39.859h-10.947zm45.08-9.544v9.544h-28.406v-39.86h27.902v9.544h-16.955v5.614h14.484v8.87h-14.484V43.6h17.459zm3.986 9.544v-39.86h15.326c3.293 0 6.193.524 8.701 1.572 2.506 1.048 4.604 2.47 6.287 4.267 1.684 1.796 2.957 3.901 3.818 6.315.859 2.414 1.291 4.987 1.291 7.72 0 3.031-.477 5.773-1.432 8.224-.955 2.452-2.312 4.548-4.07 6.288-1.76 1.74-3.873 3.088-6.344 4.042s-5.221 1.432-8.252 1.432H421.96zm24.309-19.986c0-1.534-.207-2.938-.619-4.211-.412-1.271-1-2.357-1.768-3.256s-1.713-1.601-2.836-2.105c-1.121-.505-2.377-.758-3.76-.758h-4.379V43.6h4.379c1.422 0 2.693-.262 3.816-.786a7.968 7.968 0 0 0 2.836-2.189c.766-.935 1.348-2.039 1.74-3.312s.591-2.658.591-4.155zm13.697 19.986v-39.86h10.947v39.859h-10.947zm12.799 0l14.877-39.859h8.871l14.82 39.859h-11.564l-2.414-7.804h-10.611l-2.357 7.804h-11.622zm19.312-28.463l-3.705 13.361h7.242l-3.537-13.361z"/><path d="M17.459 78.183a43.192 43.192 0 0 0 25.934 8.6c17.574 0 32.71-10.449 39.529-25.474 0 0-15.867 10.813-65.463 16.874zm69.299-36.314c-.364-10.561-4.503-20.163-11.108-27.501 0 0-63.743 3.834-61.579 9.64 0 0-1.181 3.739 40.242 8.954-.001 0 22.677 3.154 32.445 8.907zM7.006 19.741C14.746 7.856 28.15 0 43.393 0c12.281 0 23.371 5.103 31.266 13.304-.001 0-48.643.4-67.653 6.437zM1.541 54.89A43.433 43.433 0 0 1 0 43.392c0-4.9.812-9.61 2.309-14.004 0 0 7.137 5.443 34.786 9.478 0 0 28.338 4.329 28.435 8.659 0 0 1.182 4.723-29.615 6.396-.001 0-26.932.858-34.374.969z"/></g></svg>