<svg xmlns="http://www.w3.org/2000/svg" width="511.333" height="86.782" viewBox="0 0 511.333 86.782"><g fill="#FFF"><path d="M17.459 78.183a43.192 43.192 0 0 0 25.934 8.6c17.574 0 32.71-10.449 39.529-25.474 0 0-15.867 10.813-65.463 16.874zM86.758 41.869c-.364-10.561-4.503-20.163-11.108-27.501 0 0-63.743 3.834-61.579 9.64 0 0-1.181 3.739 40.242 8.954-.001 0 22.677 3.154 32.445 8.907zM7.006 19.741C14.746 7.856 28.15 0 43.393 0c12.281 0 23.371 5.103 31.266 13.304-.001 0-48.643.4-67.653 6.437zM1.541 54.89A43.433 43.433 0 0 1 0 43.392c0-4.9.812-9.61 2.309-14.004 0 0 7.137 5.443 34.786 9.478 0 0 28.338 4.329 28.435 8.659 0 0 1.182 4.723-29.615 6.396-.001 0-26.932.858-34.374.969z"/></g><g fill="#FFF"><path d="M124.086 33.309a30.85 30.85 0 0 0-3.48-1.797c-1.011-.448-2.143-.87-3.396-1.263s-2.479-.59-3.677-.59c-.974 0-1.75.15-2.33.449-.581.3-.87.806-.87 1.516 0 .525.168.955.505 1.292s.823.646 1.46.926c.636.281 1.412.553 2.33.814.916.262 1.955.58 3.115.954 1.834.562 3.489 1.179 4.969 1.853 1.478.674 2.741 1.47 3.789 2.386a9.188 9.188 0 0 1 2.414 3.341c.562 1.311.842 2.9.842 4.771 0 2.396-.439 4.407-1.318 6.035-.88 1.628-2.041 2.929-3.481 3.902s-3.069 1.675-4.884 2.104c-1.815.43-3.641.646-5.474.646a30.93 30.93 0 0 1-4.491-.337 38.734 38.734 0 0 1-4.575-.954 39.92 39.92 0 0 1-4.379-1.459 28.064 28.064 0 0 1-3.902-1.909l4.716-9.6a33.03 33.03 0 0 0 4.099 2.189c1.197.561 2.555 1.066 4.07 1.516s3.06.674 4.631.674c1.197 0 2.03-.159 2.499-.478.467-.317.701-.738.701-1.263 0-.562-.234-1.039-.701-1.432-.469-.394-1.114-.739-1.938-1.039a40.05 40.05 0 0 0-2.835-.898 61.523 61.523 0 0 1-3.396-1.066c-1.76-.599-3.275-1.244-4.547-1.937-1.273-.692-2.321-1.479-3.145-2.358a8.414 8.414 0 0 1-1.824-3.003c-.393-1.123-.59-2.414-.59-3.874 0-2.208.402-4.154 1.207-5.839.805-1.684 1.899-3.087 3.284-4.21s2.966-1.974 4.744-2.555c1.777-.58 3.658-.87 5.643-.87 1.459 0 2.881.141 4.267.421 1.384.281 2.723.637 4.014 1.067s2.498.897 3.621 1.403c1.123.505 2.133.982 3.031 1.432l-4.718 9.04zM133.461 60.144v-39.86h17.179c1.945 0 3.742.402 5.39 1.207 1.646.806 3.06 1.853 4.238 3.144s2.105 2.771 2.779 4.436c.673 1.666 1.01 3.34 1.01 5.024 0 1.76-.318 3.472-.954 5.137a14.377 14.377 0 0 1-2.667 4.435c-1.142 1.292-2.526 2.321-4.154 3.088-1.628.768-3.415 1.151-5.361 1.151h-6.512v12.238h-10.948zm10.948-21.783h5.782c.674 0 1.3-.309 1.881-.927.58-.617.87-1.73.87-3.34 0-1.646-.337-2.77-1.011-3.368s-1.348-.898-2.021-.898h-5.502v8.533zM167.145 60.144v-39.86h10.947v39.859h-10.947zM183.256 60.144v-39.86h18.302c1.945 0 3.741.402 5.389 1.207 1.646.806 3.06 1.853 4.239 3.144a14.693 14.693 0 0 1 2.778 4.436c.674 1.666 1.011 3.34 1.011 5.024 0 2.321-.505 4.482-1.516 6.484s-2.414 3.64-4.211 4.912l8.982 14.652h-12.35l-7.579-12.238h-4.098v12.238h-10.947zm10.948-21.783h6.905c.674 0 1.3-.374 1.881-1.123.579-.748.87-1.796.87-3.144 0-1.385-.337-2.442-1.011-3.172s-1.348-1.095-2.021-1.095h-6.624v8.534zM220.645 60.144v-39.86h10.947v39.859h-10.947zM268.363 29.828h-11.452v30.315h-10.947V29.828h-11.509v-9.544h33.908v9.544zM299.632 50.6v9.544h-28.406v-39.86h27.901v9.544h-16.954v5.614h14.483v8.87h-14.483V50.6h17.459zM303.618 60.144v-39.86h15.326c3.293 0 6.193.524 8.701 1.572 2.507 1.048 4.604 2.47 6.288 4.267 1.684 1.796 2.956 3.901 3.817 6.315.86 2.414 1.291 4.987 1.291 7.72 0 3.031-.477 5.773-1.432 8.224-.954 2.452-2.312 4.548-4.07 6.288s-3.873 3.088-6.344 4.042c-2.47.954-5.221 1.432-8.252 1.432h-15.325zm24.308-19.986c0-1.534-.206-2.938-.618-4.211-.412-1.271-1.001-2.357-1.768-3.256a7.974 7.974 0 0 0-2.836-2.105c-1.122-.505-2.377-.758-3.761-.758h-4.379V50.6h4.379c1.422 0 2.694-.262 3.817-.786a7.965 7.965 0 0 0 2.835-2.189c.767-.935 1.348-2.039 1.74-3.312.395-1.273.591-2.658.591-4.155zM372.894 60.144V39.147l-6.681 14.765h-5.838l-6.681-14.765v20.996h-10.947V20.284h11.958l8.589 18.751 8.646-18.751h11.901v39.859h-10.947zM417.974 50.6v9.544h-28.406v-39.86h27.902v9.544h-16.955v5.614h14.484v8.87h-14.484V50.6h17.459zM421.96 60.144v-39.86h15.326c3.293 0 6.193.524 8.701 1.572 2.506 1.048 4.604 2.47 6.287 4.267 1.684 1.796 2.957 3.901 3.818 6.315.859 2.414 1.291 4.987 1.291 7.72 0 3.031-.477 5.773-1.432 8.224-.955 2.452-2.312 4.548-4.07 6.288-1.76 1.74-3.873 3.088-6.344 4.042s-5.221 1.432-8.252 1.432H421.96zm24.309-19.986c0-1.534-.207-2.938-.619-4.211-.412-1.271-1-2.357-1.768-3.256s-1.713-1.601-2.836-2.105c-1.121-.505-2.377-.758-3.76-.758h-4.379V50.6h4.379c1.422 0 2.693-.262 3.816-.786a7.968 7.968 0 0 0 2.836-2.189c.766-.935 1.348-2.039 1.74-3.312s.591-2.658.591-4.155zM459.966 60.144v-39.86h10.947v39.859h-10.947zM472.765 60.144l14.877-39.859h8.871l14.82 39.859h-11.564l-2.414-7.804h-10.611l-2.357 7.804h-11.622zm19.312-28.463l-3.705 13.361h7.242l-3.537-13.361z"/></g></svg>