<?xml version="1.0" standalone="no"?>
<!DOCTYPE svg PUBLIC "-//W3C//DTD SVG 20010904//EN"
 "http://www.w3.org/TR/2001/REC-SVG-20010904/DTD/svg10.dtd">
<svg version="1.0" xmlns="http://www.w3.org/2000/svg"
 width="512.000000pt" height="512.000000pt" viewBox="0 0 512.000000 512.000000"
 preserveAspectRatio="xMidYMid meet">
<metadata>
Created by potrace 1.11, written by Peter Selinger 2001-2013
</metadata>
<g transform="translate(0.000000,512.000000) scale(0.100000,-0.100000)"
fill="#000000" stroke="none">
<path d="M2330 5033 c-101 -10 -215 -26 -300 -44 -909 -186 -1648 -902 -1874
-1814 -58 -235 -71 -349 -71 -615 0 -213 5 -268 35 -440 64 -369 198 -692 415
-1000 66 -94 71 -101 166 -209 122 -139 294 -292 437 -389 l59 -41 99 59 c55
33 106 64 114 69 8 5 88 54 178 108 89 54 162 101 162 105 0 3 -8 9 -17 12
-25 8 -99 81 -134 132 -15 23 -38 71 -50 108 l-22 66 -81 1 c-45 0 -97 1 -116
2 l-35 2 0 1233 c0 1226 0 1232 -20 1233 -11 0 -58 1 -105 2 l-84 2 -1 45 c-3
129 48 264 126 334 98 88 -45 81 1679 82 839 1 1533 3 1543 3 41 2 -217 278
-388 416 -367 296 -790 476 -1245 528 -105 13 -384 18 -470 10z"/>
<path d="M1615 3470 c-52 -8 -78 -23 -101 -57 -16 -26 -18 -54 -19 -325 l-1
-298 108 -1 c59 0 137 0 173 0 36 0 106 0 155 0 l90 1 0 297 c0 288 -1 298
-22 329 -12 17 -38 37 -57 44 -38 14 -256 20 -326 10z"/>
<path d="M2344 3472 c-18 -2 -48 -17 -70 -36 l-39 -34 -3 -306 -3 -306 58 0
c32 -1 150 -1 263 -2 l205 -1 0 294 c0 326 -2 337 -64 373 -28 16 -54 19 -175
20 -77 1 -155 0 -172 -2z"/>
<path d="M3074 3469 c-37 -7 -70 -29 -92 -60 -14 -21 -17 -63 -17 -314 -1
-159 0 -294 2 -300 2 -6 83 -9 221 -8 119 1 236 2 260 3 l42 0 0 299 c0 287
-1 299 -21 325 -40 51 -72 59 -224 61 -77 0 -154 -2 -171 -6z"/>
<path d="M3781 3459 c-78 -35 -76 -25 -79 -365 l-3 -304 68 -1 c63 0 288 0
408 1 l51 0 -1 298 c0 331 -1 334 -68 368 -47 25 -323 27 -376 3z"/>
<path d="M4522 3460 c-26 -8 -54 -27 -66 -43 -20 -27 -21 -41 -21 -320 -1
-161 0 -296 2 -302 3 -11 499 -12 510 -1 5 4 -17 185 -31 251 -25 125 -109
399 -128 420 -14 16 -214 13 -266 -5z"/>
<path d="M4919 2457 c-54 -33 -266 -159 -300 -180 -164 -95 -680 -403 -699
-417 -14 -9 -43 -27 -65 -39 -22 -12 -54 -30 -71 -40 -94 -57 -454 -271 -481
-287 -85 -49 -1111 -660 -1133 -675 -14 -9 -137 -83 -275 -164 -257 -151 -284
-168 -419 -250 l-79 -48 39 -20 c163 -85 437 -180 580 -203 21 -3 42 -8 45
-10 26 -16 254 -37 424 -39 275 -4 465 21 710 92 733 213 1332 772 1606 1501
37 96 92 283 103 345 3 15 7 35 10 45 17 56 55 414 44 411 -2 0 -19 -10 -39
-22z"/>
<path d="M2579 1928 c-1 -616 -1 -627 9 -612 4 5 219 140 477 298 259 159 474
293 479 297 6 5 -3 18 -20 31 -52 41 -91 88 -114 139 l-23 49 -404 0 -403 0
-1 -202z"/>
</g>
</svg>
