<?xml version="1.0" standalone="no"?>
<!DOCTYPE svg PUBLIC "-//W3C//DTD SVG 20010904//EN"
 "http://www.w3.org/TR/2001/REC-SVG-20010904/DTD/svg10.dtd">
<svg version="1.0" xmlns="http://www.w3.org/2000/svg"
 width="512.000000pt" height="512.000000pt" viewBox="0 0 512.000000 512.000000"
 preserveAspectRatio="xMidYMid meet">
<metadata>
Created by potrace 1.11, written by Peter Selinger 2001-2013
</metadata>
<g transform="translate(0.000000,512.000000) scale(0.100000,-0.100000)"
fill="#000000" stroke="none">
<path d="M2290 5029 c-144 -18 -170 -21 -240 -35 -521 -104 -995 -379 -1352
-785 -78 -89 -243 -310 -222 -296 27 16 439 111 574 132 19 3 46 7 60 10 14 3
41 7 60 10 19 3 46 7 60 10 14 2 44 7 68 10 75 9 126 16 152 20 14 3 48 7 75
10 28 3 66 7 85 10 19 3 60 7 90 10 30 3 71 7 90 10 33 4 75 8 195 19 197 19
192 19 360 31 137 9 197 14 276 20 42 3 119 8 170 11 52 2 130 7 174 9 44 2
132 7 195 10 63 3 165 7 225 10 120 6 344 13 669 20 115 3 211 7 214 10 7 7
-130 136 -234 220 -186 151 -407 279 -636 369 -120 47 -297 100 -370 111 -24
4 -46 9 -50 11 -4 3 -70 13 -145 23 -141 19 -431 24 -543 10z"/>
<path d="M4258 4215 c-2 -1 -50 -6 -108 -9 -58 -4 -127 -8 -155 -11 -27 -2
-90 -6 -140 -10 -49 -3 -112 -8 -140 -11 -27 -2 -79 -7 -115 -9 -36 -2 -90 -7
-120 -9 -30 -3 -86 -8 -125 -11 -38 -3 -90 -8 -115 -10 -25 -3 -74 -7 -110
-10 -36 -3 -85 -7 -110 -10 -25 -3 -70 -7 -100 -10 -63 -6 -149 -15 -200 -20
-19 -2 -82 -9 -140 -15 -58 -6 -121 -13 -140 -15 -19 -3 -55 -7 -80 -10 -174
-20 -333 -41 -600 -80 -340 -49 -649 -122 -785 -186 -113 -52 -137 -104 -71
-154 97 -74 520 -199 876 -260 19 -3 42 -8 50 -10 8 -2 31 -6 50 -9 19 -3 45
-8 56 -10 12 -2 37 -7 55 -10 19 -3 45 -8 59 -10 14 -3 68 -12 120 -21 52 -9
109 -18 125 -21 17 -3 44 -7 60 -9 27 -3 62 -8 135 -20 14 -3 77 -12 140 -20
63 -9 129 -18 145 -21 17 -3 46 -7 65 -9 151 -17 407 -55 570 -85 58 -11 116
-21 130 -24 167 -30 546 -116 670 -152 299 -87 512 -164 653 -236 45 -24 86
-44 90 -46 18 -8 -9 245 -44 420 -74 371 -252 749 -497 1056 -70 87 -74 91
-112 90 -21 0 -40 -2 -42 -3z"/>
<path d="M203 3354 c3 -4 0 -23 -8 -43 -15 -39 -57 -201 -74 -291 -11 -55 -14
-77 -28 -200 -10 -81 -10 -433 -1 -520 9 -74 47 -300 53 -310 2 -4 7 -22 10
-40 3 -18 8 -37 10 -41 3 -4 62 -5 132 -4 71 2 234 7 363 10 129 3 298 8 375
10 536 16 684 20 975 30 148 5 194 8 355 20 39 3 102 8 140 10 64 5 191 18
305 32 25 3 56 6 70 8 54 6 235 33 325 50 273 49 520 147 553 220 54 119 -256
252 -932 400 -65 14 -142 30 -170 36 -28 5 -62 11 -76 14 -14 3 -50 9 -80 15
-30 6 -66 12 -80 15 -30 6 -197 36 -225 40 -11 2 -56 8 -100 15 -160 23 -387
64 -595 106 -69 14 -134 27 -145 30 -11 2 -101 24 -200 48 -396 98 -718 212
-898 318 -45 26 -68 36 -54 22z"/>
<path d="M4695 1509 c-80 -54 -368 -186 -555 -256 -233 -87 -609 -206 -815
-259 -16 -4 -34 -8 -40 -10 -67 -19 -464 -115 -575 -139 -254 -54 -806 -154
-1045 -190 -22 -3 -67 -10 -100 -15 -33 -5 -80 -12 -105 -15 -25 -3 -56 -8
-70 -10 -27 -4 -109 -15 -150 -20 -93 -10 -147 -18 -159 -25 -29 -16 297 -213
489 -295 168 -73 404 -141 550 -161 19 -2 62 -9 95 -15 94 -17 453 -19 580 -3
315 39 583 122 854 265 97 51 214 122 231 139 3 3 28 20 55 39 220 151 479
426 637 677 92 147 178 315 160 313 -4 0 -20 -9 -37 -20z"/>
</g>
</svg>
