<?xml version="1.0" standalone="no"?>
<!DOCTYPE svg PUBLIC "-//W3C//DTD SVG 20010904//EN"
 "http://www.w3.org/TR/2001/REC-SVG-20010904/DTD/svg10.dtd">
<svg version="1.0" xmlns="http://www.w3.org/2000/svg"
 width="512.000000pt" height="512.000000pt" viewBox="0 0 512.000000 512.000000"
 preserveAspectRatio="xMidYMid meet">
<metadata>
Created by potrace 1.11, written by Peter Selinger 2001-2013
</metadata>
<g transform="translate(0.000000,512.000000) scale(0.100000,-0.100000)"
fill="#000000" stroke="none">
<path d="M2358 5055 c-1 -2 -38 -6 -80 -9 -43 -4 -84 -9 -90 -11 -7 -2 -31 -7
-53 -10 -76 -10 -190 -37 -304 -71 -394 -118 -743 -325 -1031 -614 -132 -132
-145 -146 -227 -250 -243 -311 -428 -738 -479 -1105 -3 -22 -7 -46 -10 -53
-18 -56 -26 -453 -12 -602 15 -159 53 -331 118 -540 20 -66 107 -266 155 -356
76 -143 142 -244 271 -413 9 -11 42 18 175 153 90 92 163 169 162 170 -2 2 -5
46 -6 98 -7 196 43 335 166 467 164 175 236 335 242 540 4 126 15 192 47 286
22 63 54 130 87 180 l20 30 -157 0 c-298 1 -516 40 -637 115 -209 129 -139
369 176 600 41 30 85 62 99 69 73 43 183 100 240 124 36 16 74 32 85 37 43 20
293 99 345 109 30 6 60 15 66 19 6 4 14 30 17 57 13 117 47 239 83 296 63 101
248 202 409 224 22 3 49 7 60 10 92 19 322 25 444 12 264 -30 458 -98 570
-199 80 -74 119 -147 135 -258 3 -19 13 -80 22 -135 9 -55 18 -113 20 -130 13
-91 15 -95 37 -96 12 0 31 -2 42 -4 11 -2 47 -5 80 -8 213 -19 483 -109 642
-213 183 -121 286 -262 277 -381 -4 -62 -27 -96 -81 -125 -102 -56 -246 -62
-502 -23 -24 4 -99 22 -166 39 l-122 33 -13 -21 c-40 -63 -80 -158 -86 -203
-6 -55 17 -128 82 -250 41 -78 48 -118 26 -155 -17 -29 -32 -37 -83 -43 -71
-9 -80 -24 -81 -123 0 -35 -7 -56 -27 -82 -21 -29 -25 -44 -23 -82 3 -43 0
-51 -33 -85 -32 -33 -36 -42 -29 -68 12 -50 13 -155 2 -187 -17 -49 -60 -68
-209 -93 -91 -14 -163 -157 -115 -229 20 -31 68 -79 98 -99 78 -50 276 -231
409 -373 72 -77 218 -262 293 -372 l69 -101 44 32 c180 129 389 334 523 512
103 138 206 308 267 444 19 42 41 91 49 109 46 101 119 347 143 487 32 179 39
280 36 490 -4 194 -7 237 -18 300 -3 17 -13 71 -21 120 -59 350 -231 731 -478
1057 -85 113 -321 347 -445 441 -350 265 -766 440 -1173 493 -25 3 -56 8 -70
11 -28 6 -466 13 -472 8z"/>
</g>
</svg>
